<?xml version="1.0" encoding="UTF-8"?>
<svg id="Layer_2" data-name="Layer 2" xmlns="http://www.w3.org/2000/svg" xmlns:xlink="http://www.w3.org/1999/xlink" viewBox="0 0 203.38 261.65">
  <defs>
    <style>
      .cls-1 {
        fill: url(#linear-gradient-2);
        opacity: .32;
      }

      .cls-2 {
        fill: url(#linear-gradient);
      }

      .cls-3 {
        fill: url(#linear-gradient-4);
      }

      .cls-4 {
        fill: url(#linear-gradient-3);
        opacity: .63;
      }
    </style>
    <linearGradient id="linear-gradient" x1="122.6" y1="238.74" x2="202.01" y2="32.27" gradientUnits="userSpaceOnUse">
      <stop offset="0" stop-color="#7a27c1"/>
      <stop offset="1" stop-color="#6318e0"/>
    </linearGradient>
    <linearGradient id="linear-gradient-2" x1="148.23" y1="145.55" x2=".94" y2="77.78" gradientUnits="userSpaceOnUse">
      <stop offset="0" stop-color="#6e1fd1"/>
      <stop offset="1" stop-color="#fc466b"/>
    </linearGradient>
    <linearGradient id="linear-gradient-3" x1="158.77" y1="121.59" x2="-41.71" y2="29.36" xlink:href="#linear-gradient-2"/>
    <linearGradient id="linear-gradient-4" x1="168.43" y1="128.17" x2="86.9" y2="-9.47" xlink:href="#linear-gradient-2"/>
  </defs>
  <g id="Layer_1-2" data-name="Layer 1">
    <g>
      <path class="cls-2" d="M203.38,15.99c-82.94,62.28-29.79,97.38-58.88,170.07-11.03,27.14-29.64,51.67-46.31,75.59,0,0,68.31-75.45,68.31-75.45,46.09-52.55-4.99-110.1,36.88-170.21Z"/>
      <g>
        <path class="cls-1" d="M117.43,129.82c-26.77-9.66-49.93-26.88-66.85-49.32C34.2,76.45,17.21,74.49,0,74.81h0l18.64,19.7c25.35,26.78,59.92,42.95,96.72,45.23l35.73,2.22-33.66-12.14Z"/>
        <path class="cls-4" d="M151.2,141.94l-2.14-4.36C124.32,87.18,79.09,49.86,24.91,35.14h0l12.37,24.14c3.84,7.49,8.3,14.58,13.31,21.22,16.91,22.44,40.08,39.67,66.85,49.32l33.66,12.14h.12s-.02-.02-.02-.02Z"/>
      </g>
      <path class="cls-3" d="M66.31,0l98.88,36.7-2.81,5.37c-12.5,23.9-17.37,51.05-13.94,77.8l2.83,22.13-28.04-22.47c-28.78-23.06-47.73-56.19-53.02-92.68L66.31,0Z"/>
    </g>
  </g>
</svg>