<svg width="703" height="399" viewBox="0 0 703 399" fill="none" xmlns="http://www.w3.org/2000/svg">
<g filter="url(#filter0_d_412_598)">
<rect x="28" y="24" width="647.114" height="347.016" rx="18" fill="white"/>
<path d="M54.6805 67.8843C52.8274 67.8843 51.2753 67.2647 50.0241 66.0253C48.7848 64.7742 48.1651 63.2279 48.1651 61.3866C48.1651 59.5453 48.7848 58.005 50.0241 56.7657C51.2753 55.5145 52.8274 54.8889 54.6805 54.8889C56.5336 54.8889 58.0798 55.5145 59.3192 56.7657C60.5703 58.005 61.1959 59.5453 61.1959 61.3866C61.1959 62.5788 60.9126 63.6706 60.3461 64.662C59.7913 65.6417 59.0359 66.4148 58.0798 66.9814L60.771 70.8765H58.1507L56.0084 67.7604C55.6071 67.843 55.1644 67.8843 54.6805 67.8843ZM57.6018 58.3414C56.811 57.527 55.8372 57.1198 54.6805 57.1198C53.5238 57.1198 52.55 57.527 51.7592 58.3414C50.9684 59.1558 50.573 60.1709 50.573 61.3866C50.573 62.6024 50.9684 63.6175 51.7592 64.4319C52.55 65.2463 53.5238 65.6535 54.6805 65.6535C55.8372 65.6535 56.811 65.2463 57.6018 64.4319C58.3926 63.6175 58.788 62.6024 58.788 61.3866C58.788 60.1709 58.3926 59.1558 57.6018 58.3414ZM66.5685 67.8843C65.5062 67.8843 64.6564 67.5479 64.019 66.8752C63.3816 66.2024 63.0629 65.2817 63.0629 64.1132V58.6424H65.3646V63.8476C65.3646 64.4732 65.5298 64.963 65.8603 65.3171C66.2026 65.6594 66.6452 65.8306 67.1882 65.8306C67.861 65.8306 68.3744 65.5827 68.7285 65.087C69.0826 64.5794 69.2596 63.9834 69.2596 63.2988V58.6424H71.5613V67.6719H69.3482V66.4325C68.758 67.4004 67.8315 67.8843 66.5685 67.8843ZM74.1837 58.6424H76.4853V67.6719H74.1837V58.6424ZM74.3607 56.9604C74.1129 56.7007 73.9889 56.388 73.9889 56.0221C73.9889 55.6562 74.1129 55.3493 74.3607 55.1014C74.6204 54.8535 74.9391 54.7296 75.3168 54.7296C75.6827 54.7296 75.9955 54.8535 76.2552 55.1014C76.5148 55.3493 76.6447 55.6562 76.6447 56.0221C76.6447 56.388 76.5148 56.7007 76.2552 56.9604C75.9955 57.2083 75.6827 57.3322 75.3168 57.3322C74.9391 57.3322 74.6204 57.2083 74.3607 56.9604ZM83.1834 67.8843C81.8261 67.8843 80.687 67.4299 79.7664 66.5211C78.8575 65.6122 78.4031 64.485 78.4031 63.1394C78.4031 61.8175 78.8575 60.702 79.7664 59.7932C80.687 58.8843 81.8261 58.4299 83.1834 58.4299C84.7769 58.4299 86.0162 59.0909 86.9015 60.4129L85.3788 61.7939C84.8477 60.9322 84.1218 60.5014 83.2011 60.5014C82.4929 60.5014 81.9028 60.7552 81.4307 61.2627C80.9703 61.7702 80.7402 62.4017 80.7402 63.1571C80.7402 63.9243 80.9703 64.5617 81.4307 65.0693C81.9028 65.565 82.4988 65.8129 83.2188 65.8129C84.1277 65.8129 84.8831 65.4116 85.4851 64.6089L86.9723 65.9722C86.5592 66.5624 86.0221 67.0286 85.3611 67.3709C84.7002 67.7132 83.9743 67.8843 83.1834 67.8843ZM90.9051 67.6719H88.6035V55.1014H90.9051V62.3781L94.1982 58.6424H96.9248L93.6494 62.4135L97.2435 67.6719H94.5346L91.9851 63.7591L90.9051 64.9984V67.6719ZM101.003 67.6719L105.854 55.1014H108.191L113.025 67.6719H110.652L109.466 64.5912H104.579L103.393 67.6719H101.003ZM107.023 57.704L105.305 62.5375H108.74L107.023 57.704ZM114.279 67.6719V58.6424H116.492V59.8817C117.082 58.9139 118.009 58.4299 119.272 58.4299C120.334 58.4299 121.184 58.7663 121.821 59.4391C122.459 60.1119 122.777 61.0325 122.777 62.2011V67.6719H120.476V62.4666C120.476 61.8411 120.305 61.3571 119.962 61.0148C119.632 60.6607 119.195 60.4837 118.652 60.4837C117.979 60.4837 117.466 60.7375 117.112 61.245C116.758 61.7407 116.581 62.3309 116.581 63.0155V67.6719H114.279ZM124.532 65.2286C124.532 64.544 124.78 63.9775 125.276 63.5289C125.783 63.0686 126.515 62.744 127.471 62.5552L130.074 62.0417V61.9355C130.074 61.4398 129.909 61.068 129.578 60.8201C129.259 60.5604 128.823 60.4306 128.268 60.4306C127.312 60.4306 126.515 60.8024 125.878 61.546L124.674 60.0765C125.595 58.9788 126.846 58.4299 128.427 58.4299C129.631 58.4299 130.576 58.7486 131.26 59.386C131.956 60.0116 132.305 60.8673 132.305 61.9532V67.6719H130.18V66.4502C129.637 67.4063 128.746 67.8843 127.507 67.8843C126.645 67.8843 125.931 67.6365 125.364 67.1407C124.81 66.6332 124.532 65.9958 124.532 65.2286ZM126.745 65.087C126.745 65.3938 126.857 65.6417 127.082 65.8306C127.306 66.0194 127.601 66.1138 127.967 66.1138C128.581 66.1138 129.088 65.9073 129.49 65.4942C129.903 65.0811 130.109 64.5794 130.109 63.9893V63.5997L128.002 64.007C127.164 64.1604 126.745 64.5204 126.745 65.087ZM134.644 55.1014H136.946V64.8214C136.946 65.1519 136.999 65.4056 137.105 65.5827C137.211 65.7597 137.424 65.8483 137.742 65.8483C137.955 65.8483 138.156 65.8129 138.344 65.742V67.6896C138.026 67.8194 137.666 67.8843 137.264 67.8843C136.474 67.8843 135.836 67.666 135.352 67.2293C134.88 66.7925 134.644 66.1256 134.644 65.2286V55.1014ZM142.084 67.424L138.454 58.6424H140.915L143.217 64.9276L145.501 58.6424H147.891L143.854 68.6988C143.465 69.6548 143.01 70.3453 142.491 70.7702C141.972 71.207 141.299 71.4253 140.473 71.4253C139.93 71.4253 139.428 71.325 138.968 71.1243V69.1768C139.334 69.3774 139.735 69.4778 140.172 69.4778C140.573 69.4778 140.909 69.3656 141.181 69.1414C141.464 68.9289 141.694 68.5512 141.871 68.0083L142.084 67.424ZM148.266 58.6424H149.611V56.1814H151.842V58.6424H153.985V60.4837H151.842V64.5027C151.842 65.3761 152.261 65.8129 153.099 65.8129C153.536 65.8129 153.908 65.7125 154.215 65.5119V67.5302C153.766 67.7663 153.194 67.8843 152.497 67.8843C151.565 67.8843 150.839 67.6188 150.32 67.0876C149.8 66.5565 149.541 65.807 149.541 64.8391V60.4837H148.266V58.6424ZM155.827 58.6424H158.128V67.6719H155.827V58.6424ZM156.004 56.9604C155.756 56.7007 155.632 56.388 155.632 56.0221C155.632 55.6562 155.756 55.3493 156.004 55.1014C156.263 54.8535 156.582 54.7296 156.96 54.7296C157.326 54.7296 157.639 54.8535 157.898 55.1014C158.158 55.3493 158.288 55.6562 158.288 56.0221C158.288 56.388 158.158 56.7007 157.898 56.9604C157.639 57.2083 157.326 57.3322 156.96 57.3322C156.582 57.3322 156.263 57.2083 156.004 56.9604ZM164.827 67.8843C163.469 67.8843 162.33 67.4299 161.409 66.5211C160.501 65.6122 160.046 64.485 160.046 63.1394C160.046 61.8175 160.501 60.702 161.409 59.7932C162.33 58.8843 163.469 58.4299 164.827 58.4299C166.42 58.4299 167.659 59.0909 168.545 60.4129L167.022 61.7939C166.491 60.9322 165.765 60.5014 164.844 60.5014C164.136 60.5014 163.546 60.7552 163.074 61.2627C162.613 61.7702 162.383 62.4017 162.383 63.1571C162.383 63.9243 162.613 64.5617 163.074 65.0693C163.546 65.565 164.142 65.8129 164.862 65.8129C165.771 65.8129 166.526 65.4116 167.128 64.6089L168.615 65.9722C168.202 66.5624 167.665 67.0286 167.004 67.3709C166.343 67.7132 165.617 67.8843 164.827 67.8843ZM169.414 65.8483L170.972 64.6975C171.539 65.5827 172.259 66.0253 173.132 66.0253C173.557 66.0253 173.888 65.9545 174.124 65.8129C174.372 65.6712 174.496 65.4824 174.496 65.2463C174.496 64.9748 174.366 64.7565 174.106 64.5912C173.847 64.426 173.327 64.2135 172.548 63.9538C171.58 63.6352 170.866 63.2634 170.406 62.8384C169.946 62.4017 169.715 61.8293 169.715 61.1211C169.715 60.342 170.046 59.6988 170.707 59.1912C171.38 58.6837 172.206 58.4299 173.186 58.4299C173.917 58.4299 174.572 58.5952 175.151 58.9257C175.741 59.2443 176.184 59.6752 176.479 60.2181L174.938 61.3335C174.513 60.6253 173.917 60.2712 173.15 60.2712C172.784 60.2712 172.477 60.348 172.229 60.5014C171.993 60.6548 171.875 60.8555 171.875 61.1034C171.875 61.3276 172.005 61.5224 172.265 61.6876C172.536 61.8529 173.032 62.0653 173.752 62.325C174.755 62.7027 175.487 63.0863 175.948 63.4758C176.42 63.8653 176.656 64.4378 176.656 65.1932C176.656 65.9604 176.325 66.6037 175.664 67.123C175.015 67.6306 174.171 67.8843 173.132 67.8843C172.318 67.8843 171.574 67.7073 170.902 67.3532C170.241 66.9873 169.745 66.4856 169.414 65.8483Z" fill="#000929"/>
<rect x="556.933" y="49.2292" width="88.5245" height="27.4426" rx="6.63933" stroke="#E5EBF0" stroke-width="0.885245"/>
<path d="M567.177 65.5408L570.087 58.041H571.192L574.103 65.5408H573.019L572.233 63.5012H569.046L568.26 65.5408H567.177ZM569.386 62.5132H571.893L570.64 59.1883L569.386 62.5132ZM574.985 58.041H576.015V64.0217C576.015 64.4891 576.182 64.7228 576.515 64.7228C576.635 64.7228 576.752 64.7016 576.865 64.6591V65.5833C576.724 65.6399 576.564 65.6682 576.387 65.6682C575.984 65.6682 575.647 65.5549 575.378 65.3283C575.116 65.1017 574.985 64.7263 574.985 64.2023V58.041ZM578.004 58.041H579.034V64.0217C579.034 64.4891 579.201 64.7228 579.534 64.7228C579.654 64.7228 579.771 64.7016 579.884 64.6591V65.5833C579.742 65.6399 579.583 65.6682 579.406 65.6682C579.002 65.6682 578.666 65.5549 578.397 65.3283C578.135 65.1017 578.004 64.7263 578.004 64.2023V58.041ZM583.127 60.1656H583.966V58.689H584.965V60.1656H586.346V61.026H584.965V63.8305C584.965 64.4183 585.255 64.7122 585.836 64.7122C586.07 64.7122 586.282 64.6555 586.473 64.5422V65.4877C586.268 65.6081 585.981 65.6682 585.613 65.6682C585.089 65.6682 584.678 65.5195 584.381 65.2221C584.083 64.9176 583.934 64.4962 583.934 63.958V61.026H583.127V60.1656ZM587.632 60.1656H588.663V65.5408H587.632V60.1656ZM587.696 59.0289C587.569 58.8944 587.505 58.7386 587.505 58.5615C587.505 58.3845 587.569 58.2322 587.696 58.1047C587.824 57.9772 587.976 57.9135 588.153 57.9135C588.33 57.9135 588.482 57.9772 588.61 58.1047C588.737 58.2322 588.801 58.3845 588.801 58.5615C588.801 58.7386 588.737 58.8944 588.61 59.0289C588.482 59.1564 588.33 59.2201 588.153 59.2201C587.976 59.2201 587.824 59.1564 587.696 59.0289ZM590.423 65.5408V60.1656H591.432V60.9729C591.772 60.3497 592.353 60.0381 593.174 60.0381C593.599 60.0381 593.971 60.1372 594.29 60.3355C594.616 60.5267 594.863 60.7994 595.033 61.1535C595.288 60.764 595.564 60.4807 595.862 60.3037C596.166 60.1266 596.538 60.0381 596.977 60.0381C597.601 60.0381 598.103 60.2399 598.486 60.6436C598.868 61.0402 599.059 61.589 599.059 62.2902V65.5408H598.029V62.3326C598.029 61.9077 597.909 61.5784 597.668 61.3447C597.427 61.1039 597.126 60.9835 596.765 60.9835C596.503 60.9835 596.269 61.0402 596.064 61.1535C595.858 61.2668 595.699 61.4155 595.586 61.5997C595.472 61.7838 595.387 61.9785 595.331 62.1839C595.281 62.3893 595.256 62.5982 595.256 62.8107V65.5408H594.226V62.3326C594.226 61.9077 594.106 61.5784 593.865 61.3447C593.624 61.1039 593.323 60.9835 592.962 60.9835C592.7 60.9835 592.466 61.0402 592.261 61.1535C592.055 61.2668 591.896 61.4155 591.783 61.5997C591.669 61.7838 591.584 61.9785 591.528 62.1839C591.478 62.3893 591.453 62.5982 591.453 62.8107V65.5408H590.423ZM601.117 64.8715C600.586 64.3333 600.32 63.6641 600.32 62.8638C600.32 62.0635 600.572 61.3943 601.075 60.8561C601.585 60.3107 602.24 60.0381 603.04 60.0381C603.791 60.0381 604.393 60.2789 604.846 60.7605C605.299 61.2349 605.526 61.8263 605.526 62.5345C605.526 62.7328 605.508 62.9275 605.473 63.1187H601.404C601.454 63.6145 601.648 64.0075 601.988 64.2979C602.328 64.5812 602.739 64.7228 603.22 64.7228C603.815 64.7228 604.322 64.4962 604.74 64.0429L605.366 64.7653C604.771 65.3673 604.049 65.6682 603.199 65.6682C602.349 65.6682 601.655 65.4027 601.117 64.8715ZM603.051 60.9623C602.633 60.9623 602.279 61.0791 601.988 61.3128C601.698 61.5465 601.514 61.8688 601.436 62.2795H604.516V62.2689C604.481 61.8723 604.325 61.5572 604.049 61.3235C603.78 61.0827 603.447 60.9623 603.051 60.9623Z" fill="#111827"/>
<path d="M624.654 61.1802L628.195 64.7212L631.736 61.1802" stroke="#A0AEC0" stroke-width="1.32787" stroke-linecap="round" stroke-linejoin="round"/>
<line x1="256.699" y1="98.9488" x2="645.604" y2="98.9488" stroke="#F1F2F4" stroke-width="0.593114" stroke-linecap="round"/>
<path d="M226.273 103.416C225.823 103.416 225.423 103.316 225.073 103.114C224.726 102.908 224.453 102.636 224.255 102.296C224.057 101.952 223.957 101.572 223.957 101.154H224.85C224.85 101.405 224.908 101.635 225.025 101.844C225.142 102.05 225.306 102.214 225.519 102.338C225.731 102.462 225.983 102.524 226.273 102.524C226.525 102.524 226.758 102.462 226.974 102.338C227.194 102.214 227.371 102.05 227.505 101.844C227.64 101.635 227.707 101.405 227.707 101.154C227.707 100.839 227.626 100.577 227.463 100.368C227.304 100.155 227.081 99.9976 226.794 99.8949C226.51 99.7887 226.186 99.7356 225.822 99.7356V99.0185C226.325 99.0185 226.726 98.9141 227.027 98.7051C227.332 98.4962 227.484 98.1882 227.484 97.781C227.484 97.565 227.426 97.3667 227.309 97.1861C227.192 97.0055 227.038 96.8621 226.847 96.7558C226.659 96.6461 226.457 96.5912 226.241 96.5912C226.022 96.5912 225.811 96.6461 225.609 96.7558C225.407 96.8621 225.243 97.0055 225.115 97.1861C224.988 97.3667 224.924 97.565 224.924 97.781H224.032C224.032 97.4941 224.09 97.225 224.207 96.9736C224.327 96.7222 224.49 96.5009 224.696 96.3097C224.905 96.1185 225.14 95.9697 225.402 95.8635C225.664 95.7537 225.94 95.6989 226.231 95.6989C226.61 95.6989 226.962 95.7927 227.288 95.9804C227.613 96.168 227.875 96.4194 228.074 96.7346C228.276 97.0497 228.377 97.3985 228.377 97.781C228.377 98.1244 228.29 98.4413 228.116 98.7317C227.943 99.0221 227.707 99.2257 227.41 99.3425C227.668 99.431 227.886 99.5691 228.063 99.7568C228.24 99.9409 228.373 100.153 228.461 100.394C228.554 100.635 228.6 100.888 228.6 101.154C228.6 101.568 228.492 101.947 228.276 102.29C228.063 102.634 227.78 102.908 227.426 103.114C227.075 103.316 226.691 103.416 226.273 103.416ZM232.101 103.416C231.658 103.416 231.261 103.317 230.911 103.119C230.56 102.917 230.259 102.639 230.008 102.285C229.756 101.931 229.565 101.522 229.434 101.058C229.303 100.591 229.238 100.091 229.238 99.5603C229.238 99.0291 229.303 98.5299 229.434 98.0625C229.565 97.5951 229.756 97.1861 230.008 96.8355C230.259 96.4814 230.56 96.2052 230.911 96.0069C231.261 95.8051 231.658 95.7042 232.101 95.7042C232.54 95.7042 232.934 95.8051 233.285 96.0069C233.639 96.2052 233.938 96.4814 234.183 96.8355C234.431 97.1861 234.62 97.5951 234.751 98.0625C234.886 98.5299 234.953 99.0291 234.953 99.5603C234.953 100.091 234.886 100.591 234.751 101.058C234.62 101.522 234.431 101.931 234.183 102.285C233.938 102.639 233.639 102.917 233.285 103.119C232.934 103.317 232.54 103.416 232.101 103.416ZM232.101 102.524C232.543 102.524 232.913 102.388 233.211 102.115C233.512 101.839 233.737 101.476 233.885 101.026C234.034 100.577 234.108 100.088 234.108 99.5603C234.108 99.0044 234.03 98.5033 233.875 98.0571C233.722 97.6074 233.496 97.2516 233.195 96.9895C232.897 96.7275 232.533 96.5965 232.101 96.5965C231.761 96.5965 231.463 96.6762 231.208 96.8355C230.957 96.9949 230.748 97.2126 230.582 97.4888C230.415 97.765 230.289 98.0819 230.204 98.4396C230.123 98.7937 230.082 99.1672 230.082 99.5603C230.082 100.088 230.158 100.578 230.311 101.032C230.463 101.481 230.688 101.842 230.985 102.115C231.286 102.388 231.658 102.524 232.101 102.524ZM240.213 103.278H239.188L237.775 100.84L236.798 102.009V103.278H235.905V95.3111H236.798V100.623L239.023 97.9669H240.186L238.38 100.118L240.213 103.278Z" fill="#6D7D93"/>
<line x1="256.699" y1="139.811" x2="645.604" y2="139.811" stroke="#F1F2F4" stroke-width="0.593114" stroke-linecap="round"/>
<path d="M224.064 144.141V143.349C224.336 143.105 224.643 142.832 224.982 142.531C225.322 142.227 225.661 141.91 225.997 141.58C226.337 141.248 226.649 140.918 226.932 140.593C227.215 140.267 227.443 139.959 227.617 139.668C227.79 139.374 227.877 139.118 227.877 138.898C227.877 138.636 227.813 138.397 227.686 138.181C227.559 137.962 227.387 137.786 227.171 137.655C226.958 137.524 226.721 137.459 226.459 137.459C226.197 137.459 225.956 137.524 225.737 137.655C225.521 137.786 225.347 137.962 225.216 138.181C225.089 138.397 225.025 138.636 225.025 138.898H224.133C224.133 138.463 224.239 138.07 224.451 137.719C224.664 137.365 224.945 137.085 225.296 136.88C225.646 136.671 226.034 136.566 226.459 136.566C226.884 136.566 227.27 136.671 227.617 136.88C227.968 137.089 228.247 137.37 228.456 137.724C228.665 138.075 228.77 138.466 228.77 138.898C228.77 139.146 228.709 139.413 228.589 139.7C228.469 139.984 228.304 140.276 228.095 140.577C227.886 140.878 227.649 141.182 227.383 141.49C227.118 141.795 226.838 142.096 226.544 142.393C226.25 142.691 225.958 142.976 225.668 143.248H228.865V144.141H224.064ZM232.342 144.279C231.881 144.279 231.463 144.167 231.088 143.944C230.713 143.721 230.415 143.424 230.196 143.052C229.98 142.676 229.872 142.264 229.872 141.814H230.764C230.764 142.101 230.835 142.365 230.977 142.606C231.118 142.843 231.308 143.032 231.545 143.174C231.786 143.316 232.051 143.386 232.342 143.386C232.628 143.386 232.89 143.316 233.128 143.174C233.365 143.032 233.554 142.843 233.696 142.606C233.838 142.365 233.908 142.101 233.908 141.814C233.908 141.527 233.841 141.264 233.707 141.023C233.576 140.782 233.383 140.591 233.128 140.449C232.873 140.304 232.563 140.231 232.198 140.231H230.366L231.088 136.705H234.615V137.597H231.81L231.465 139.339L232.235 139.344C232.742 139.355 233.186 139.468 233.569 139.684C233.955 139.897 234.255 140.187 234.471 140.555C234.691 140.92 234.801 141.34 234.801 141.814C234.801 142.151 234.737 142.469 234.61 142.77C234.482 143.068 234.305 143.33 234.078 143.556C233.852 143.783 233.59 143.96 233.292 144.088C232.998 144.215 232.682 144.279 232.342 144.279ZM240.379 144.141H239.354L237.941 141.703L236.964 142.871V144.141H236.071V136.173H236.964V141.485L239.189 138.829H240.352L238.546 140.98L240.379 144.141Z" fill="#6D7D93"/>
<line x1="256.699" y1="180.673" x2="645.604" y2="180.673" stroke="#F1F2F4" stroke-width="0.593114" stroke-linecap="round"/>
<path d="M224.064 185.003V184.211C224.336 183.967 224.643 183.694 224.982 183.393C225.322 183.089 225.661 182.772 225.997 182.443C226.337 182.11 226.649 181.78 226.932 181.455C227.215 181.129 227.443 180.821 227.617 180.53C227.79 180.237 227.877 179.98 227.877 179.76C227.877 179.498 227.813 179.259 227.686 179.043C227.559 178.824 227.387 178.648 227.171 178.517C226.958 178.386 226.721 178.321 226.459 178.321C226.197 178.321 225.956 178.386 225.737 178.517C225.521 178.648 225.347 178.824 225.216 179.043C225.089 179.259 225.025 179.498 225.025 179.76H224.133C224.133 179.325 224.239 178.932 224.451 178.581C224.664 178.227 224.945 177.947 225.296 177.742C225.646 177.533 226.034 177.429 226.459 177.429C226.884 177.429 227.27 177.533 227.617 177.742C227.968 177.951 228.247 178.232 228.456 178.586C228.665 178.937 228.77 179.328 228.77 179.76C228.77 180.008 228.709 180.275 228.589 180.562C228.469 180.846 228.304 181.138 228.095 181.439C227.886 181.74 227.649 182.044 227.383 182.352C227.118 182.657 226.838 182.958 226.544 183.255C226.25 183.553 225.958 183.838 225.668 184.11H228.865V185.003H224.064ZM232.412 185.141C231.969 185.141 231.573 185.042 231.222 184.843C230.871 184.642 230.57 184.364 230.319 184.009C230.068 183.655 229.876 183.246 229.745 182.782C229.614 182.315 229.549 181.816 229.549 181.285C229.549 180.754 229.614 180.254 229.745 179.787C229.876 179.319 230.068 178.91 230.319 178.56C230.57 178.206 230.871 177.93 231.222 177.731C231.573 177.529 231.969 177.429 232.412 177.429C232.851 177.429 233.246 177.529 233.596 177.731C233.95 177.93 234.25 178.206 234.494 178.56C234.742 178.91 234.931 179.319 235.062 179.787C235.197 180.254 235.264 180.754 235.264 181.285C235.264 181.816 235.197 182.315 235.062 182.782C234.931 183.246 234.742 183.655 234.494 184.009C234.25 184.364 233.95 184.642 233.596 184.843C233.246 185.042 232.851 185.141 232.412 185.141ZM232.412 184.248C232.854 184.248 233.224 184.112 233.522 183.839C233.823 183.563 234.048 183.2 234.196 182.751C234.345 182.301 234.42 181.812 234.42 181.285C234.42 180.729 234.342 180.228 234.186 179.782C234.034 179.332 233.807 178.976 233.506 178.714C233.209 178.452 232.844 178.321 232.412 178.321C232.072 178.321 231.774 178.401 231.519 178.56C231.268 178.719 231.059 178.937 230.893 179.213C230.726 179.489 230.601 179.806 230.516 180.164C230.434 180.518 230.393 180.892 230.393 181.285C230.393 181.812 230.47 182.303 230.622 182.756C230.774 183.206 230.999 183.567 231.296 183.839C231.597 184.112 231.969 184.248 232.412 184.248ZM240.524 185.003H239.499L238.086 182.565L237.109 183.733V185.003H236.216V177.035H237.109V182.347L239.334 179.691H240.498L238.692 181.842L240.524 185.003Z" fill="#6D7D93"/>
<path d="M224.897 225.865V219.321H224.064L224.313 218.429H225.79V225.865H224.897ZM229.478 226.003C229.018 226.003 228.6 225.892 228.225 225.668C227.85 225.445 227.552 225.148 227.333 224.776C227.117 224.401 227.009 223.988 227.009 223.539H227.901C227.901 223.825 227.972 224.089 228.113 224.33C228.255 224.567 228.444 224.757 228.682 224.898C228.922 225.04 229.188 225.111 229.478 225.111C229.765 225.111 230.027 225.04 230.264 224.898C230.502 224.757 230.691 224.567 230.833 224.33C230.974 224.089 231.045 223.825 231.045 223.539C231.045 223.252 230.978 222.988 230.843 222.747C230.712 222.506 230.519 222.315 230.264 222.174C230.01 222.028 229.7 221.956 229.335 221.956H227.503L228.225 218.429H231.752V219.321H228.947L228.602 221.063L229.372 221.069C229.879 221.079 230.323 221.193 230.705 221.409C231.091 221.621 231.392 221.911 231.608 222.28C231.828 222.644 231.938 223.064 231.938 223.539C231.938 223.875 231.874 224.194 231.746 224.495C231.619 224.792 231.442 225.054 231.215 225.281C230.989 225.507 230.727 225.684 230.429 225.812C230.135 225.939 229.818 226.003 229.478 226.003ZM237.516 225.865H236.491L235.078 223.427L234.1 224.596V225.865H233.208V217.898H234.1V223.209L236.326 220.554H237.489L235.683 222.705L237.516 225.865Z" fill="#6D7D93"/>
<line x1="254.115" y1="221.536" x2="645.603" y2="221.536" stroke="#F1F2F4" stroke-width="0.593114" stroke-linecap="round"/>
<line x1="254.115" y1="262.398" x2="645.603" y2="262.398" stroke="#F1F2F4" stroke-width="0.593114" stroke-linecap="round"/>
<path d="M224.897 266.727V260.184H224.064L224.313 259.291H225.79V266.727H224.897ZM229.818 266.865C229.376 266.865 228.979 266.766 228.629 266.568C228.278 266.366 227.977 266.088 227.726 265.734C227.474 265.38 227.283 264.971 227.152 264.507C227.021 264.04 226.955 263.54 226.955 263.009C226.955 262.478 227.021 261.979 227.152 261.511C227.283 261.044 227.474 260.635 227.726 260.284C227.977 259.93 228.278 259.654 228.629 259.456C228.979 259.254 229.376 259.153 229.818 259.153C230.257 259.153 230.652 259.254 231.003 259.456C231.357 259.654 231.656 259.93 231.9 260.284C232.148 260.635 232.338 261.044 232.469 261.511C232.603 261.979 232.671 262.478 232.671 263.009C232.671 263.54 232.603 264.04 232.469 264.507C232.338 264.971 232.148 265.38 231.9 265.734C231.656 266.088 231.357 266.366 231.003 266.568C230.652 266.766 230.257 266.865 229.818 266.865ZM229.818 265.973C230.261 265.973 230.631 265.837 230.928 265.564C231.229 265.288 231.454 264.925 231.603 264.475C231.752 264.026 231.826 263.537 231.826 263.009C231.826 262.453 231.748 261.952 231.592 261.506C231.44 261.056 231.213 260.701 230.912 260.439C230.615 260.176 230.25 260.045 229.818 260.045C229.478 260.045 229.181 260.125 228.926 260.284C228.675 260.444 228.466 260.662 228.299 260.938C228.133 261.214 228.007 261.531 227.922 261.889C227.841 262.243 227.8 262.616 227.8 263.009C227.8 263.537 227.876 264.027 228.028 264.481C228.181 264.93 228.405 265.291 228.703 265.564C229.004 265.837 229.376 265.973 229.818 265.973ZM237.931 266.727H236.905L235.493 264.289L234.515 265.458V266.727H233.623V258.76H234.515V264.072L236.741 261.416H237.904L236.098 263.567L237.931 266.727Z" fill="#6D7D93"/>
<line x1="246.156" y1="303.26" x2="645.604" y2="303.26" stroke="#F1F2F4" stroke-width="0.593114" stroke-linecap="round"/>
<path d="M226.82 307.727C226.378 307.727 225.981 307.628 225.63 307.43C225.28 307.228 224.979 306.95 224.728 306.596C224.476 306.242 224.285 305.833 224.154 305.369C224.023 304.902 223.957 304.402 223.957 303.871C223.957 303.34 224.023 302.841 224.154 302.373C224.285 301.906 224.476 301.497 224.728 301.147C224.979 300.792 225.28 300.516 225.63 300.318C225.981 300.116 226.378 300.015 226.82 300.015C227.259 300.015 227.654 300.116 228.005 300.318C228.359 300.516 228.658 300.792 228.902 301.147C229.15 301.497 229.34 301.906 229.471 302.373C229.605 302.841 229.672 303.34 229.672 303.871C229.672 304.402 229.605 304.902 229.471 305.369C229.34 305.833 229.15 306.242 228.902 306.596C228.658 306.95 228.359 307.228 228.005 307.43C227.654 307.628 227.259 307.727 226.82 307.727ZM226.82 306.835C227.263 306.835 227.633 306.699 227.93 306.426C228.231 306.15 228.456 305.787 228.605 305.337C228.754 304.888 228.828 304.399 228.828 303.871C228.828 303.315 228.75 302.814 228.594 302.368C228.442 301.918 228.215 301.563 227.914 301.301C227.617 301.039 227.252 300.908 226.82 300.908C226.48 300.908 226.183 300.987 225.928 301.147C225.677 301.306 225.468 301.524 225.301 301.8C225.135 302.076 225.009 302.393 224.924 302.751C224.843 303.105 224.802 303.478 224.802 303.871C224.802 304.399 224.878 304.889 225.03 305.343C225.183 305.792 225.407 306.153 225.705 306.426C226.006 306.699 226.378 306.835 226.82 306.835Z" fill="#6D7D93"/>
<path d="M256.531 336.393L257.37 335.884C257.54 336.231 257.724 336.489 257.922 336.659C258.121 336.829 258.393 336.914 258.74 336.914C259.13 336.914 259.42 336.794 259.611 336.553C259.81 336.305 259.909 335.983 259.909 335.586V330.253H260.96V335.597C260.96 336.27 260.752 336.818 260.334 337.243C259.916 337.668 259.371 337.881 258.698 337.881C258.188 337.881 257.745 337.753 257.37 337.498C257.002 337.243 256.722 336.875 256.531 336.393ZM262.285 336.33C262.285 335.48 262.866 334.942 264.027 334.715L265.706 334.386V334.279C265.706 333.932 265.596 333.66 265.376 333.462C265.157 333.263 264.849 333.164 264.452 333.164C263.857 333.164 263.358 333.394 262.954 333.855L262.423 333.175C262.954 332.559 263.663 332.25 264.548 332.25C265.221 332.25 265.752 332.438 266.141 332.814C266.538 333.182 266.736 333.685 266.736 334.322V337.753H265.78V336.925C265.398 337.562 264.813 337.881 264.027 337.881C263.524 337.881 263.107 337.735 262.774 337.445C262.448 337.148 262.285 336.776 262.285 336.33ZM263.294 336.266C263.294 336.486 263.379 336.666 263.549 336.808C263.719 336.942 263.935 337.01 264.197 337.01C264.622 337.01 264.987 336.861 265.291 336.563C265.596 336.259 265.748 335.915 265.748 335.533V335.193L264.208 335.49C263.882 335.554 263.648 335.65 263.507 335.777C263.365 335.898 263.294 336.061 263.294 336.266ZM268.395 337.753V332.378H269.404V333.185C269.744 332.562 270.325 332.25 271.147 332.25C271.77 332.25 272.273 332.452 272.655 332.856C273.037 333.253 273.229 333.801 273.229 334.503V337.753H272.198V334.545C272.198 334.12 272.078 333.791 271.837 333.557C271.596 333.316 271.295 333.196 270.934 333.196C270.672 333.196 270.438 333.253 270.233 333.366C270.028 333.479 269.868 333.628 269.755 333.812C269.642 333.996 269.557 334.191 269.5 334.396C269.45 334.602 269.426 334.811 269.426 335.023V337.753H268.395Z" fill="#6D7D93"/>
<path d="M325.233 337.753V330.253H329.578V331.209H326.285V333.61H329.121V334.545H326.285V337.753H325.233ZM331.048 337.084C330.517 336.546 330.251 335.876 330.251 335.076C330.251 334.276 330.503 333.607 331.005 333.068C331.515 332.523 332.17 332.25 332.971 332.25C333.721 332.25 334.323 332.491 334.777 332.973C335.23 333.447 335.456 334.039 335.456 334.747C335.456 334.945 335.439 335.14 335.403 335.331H331.335C331.384 335.827 331.579 336.22 331.919 336.51C332.259 336.794 332.67 336.935 333.151 336.935C333.746 336.935 334.253 336.709 334.67 336.255L335.297 336.978C334.702 337.58 333.98 337.881 333.13 337.881C332.28 337.881 331.586 337.615 331.048 337.084ZM332.981 333.175C332.563 333.175 332.209 333.292 331.919 333.525C331.629 333.759 331.445 334.081 331.367 334.492H334.447V334.481C334.412 334.085 334.256 333.77 333.98 333.536C333.711 333.295 333.378 333.175 332.981 333.175ZM336.797 330.253H337.827V333.122C337.983 332.874 338.227 332.668 338.56 332.505C338.893 332.335 339.24 332.25 339.601 332.25C340.323 332.25 340.929 332.516 341.418 333.047C341.906 333.578 342.15 334.251 342.15 335.066C342.15 335.88 341.906 336.553 341.418 337.084C340.929 337.615 340.323 337.881 339.601 337.881C339.233 337.881 338.875 337.792 338.528 337.615C338.181 337.438 337.933 337.218 337.784 336.956V337.753H336.797V330.253ZM340.61 333.727C340.284 333.373 339.891 333.196 339.431 333.196C338.971 333.196 338.578 333.373 338.252 333.727C337.926 334.074 337.763 334.52 337.763 335.066C337.763 335.611 337.926 336.061 338.252 336.415C338.578 336.762 338.971 336.935 339.431 336.935C339.891 336.935 340.284 336.762 340.61 336.415C340.943 336.061 341.109 335.611 341.109 335.066C341.109 334.52 340.943 334.074 340.61 333.727Z" fill="#6D7D93"/>
<path d="M393.928 337.753V330.253H394.895L397.678 334.704L400.461 330.253H401.428V337.753H400.376V332.25L398.007 335.937H397.348L394.98 332.25V337.753H393.928ZM402.846 336.33C402.846 335.48 403.427 334.942 404.588 334.715L406.267 334.386V334.279C406.267 333.932 406.157 333.66 405.937 333.462C405.718 333.263 405.41 333.164 405.013 333.164C404.418 333.164 403.919 333.394 403.515 333.855L402.984 333.175C403.515 332.559 404.224 332.25 405.109 332.25C405.782 332.25 406.313 332.438 406.702 332.814C407.099 333.182 407.297 333.685 407.297 334.322V337.753H406.341V336.925C405.959 337.562 405.374 337.881 404.588 337.881C404.086 337.881 403.668 337.735 403.335 337.445C403.009 337.148 402.846 336.776 402.846 336.33ZM403.855 336.266C403.855 336.486 403.94 336.666 404.11 336.808C404.28 336.942 404.496 337.01 404.758 337.01C405.183 337.01 405.548 336.861 405.852 336.563C406.157 336.259 406.309 335.915 406.309 335.533V335.193L404.769 335.49C404.443 335.554 404.209 335.65 404.068 335.777C403.926 335.898 403.855 336.061 403.855 336.266ZM408.956 332.378H409.965V333.323C410.1 332.991 410.302 332.729 410.571 332.537C410.84 332.346 411.152 332.25 411.506 332.25C411.64 332.25 411.75 332.265 411.835 332.293V333.302C411.778 333.288 411.708 333.281 411.623 333.281C411.127 333.281 410.73 333.447 410.433 333.78C410.135 334.106 409.987 334.542 409.987 335.087V337.753H408.956V332.378Z" fill="#6D7D93"/>
<path d="M462.393 337.753L465.303 330.179H466.897L469.797 337.753H468.14L467.481 336.022H464.708L464.05 337.753H462.393ZM466.1 332.017L465.208 334.63H466.992L466.1 332.017ZM470.441 339.878V332.304H471.939V333.058C472.137 332.76 472.392 332.541 472.704 332.399C473.023 332.25 473.334 332.176 473.639 332.176C474.347 332.176 474.949 332.445 475.445 332.983C475.94 333.522 476.188 334.202 476.188 335.023C476.188 335.845 475.947 336.528 475.466 337.073C474.984 337.612 474.372 337.881 473.628 337.881C473.316 337.881 473.015 337.82 472.725 337.7C472.442 337.58 472.219 337.399 472.056 337.158V339.878H470.441ZM473.299 333.6C472.93 333.6 472.622 333.734 472.375 334.003C472.134 334.265 472.013 334.612 472.013 335.044C472.013 335.469 472.134 335.813 472.375 336.075C472.622 336.33 472.93 336.457 473.299 336.457C473.653 336.457 473.95 336.326 474.191 336.064C474.439 335.802 474.563 335.462 474.563 335.044C474.563 334.619 474.439 334.272 474.191 334.003C473.95 333.734 473.653 333.6 473.299 333.6ZM477.246 332.304H478.851V333.249C478.992 332.916 479.194 332.654 479.456 332.463C479.725 332.272 480.037 332.176 480.391 332.176C480.504 332.176 480.617 332.19 480.731 332.219V333.759C480.646 333.724 480.525 333.706 480.37 333.706C479.902 333.706 479.534 333.872 479.265 334.205C479.003 334.538 478.872 334.988 478.872 335.554V337.753H477.246V332.304Z" fill="#100A05"/>
<path d="M532.203 337.753V330.253H533.169L535.953 334.704L538.736 330.253H539.703V337.753H538.651V332.25L536.282 335.937H535.623L533.254 332.25V337.753H532.203ZM541.121 336.33C541.121 335.48 541.702 334.942 542.863 334.715L544.542 334.386V334.279C544.542 333.932 544.432 333.66 544.212 333.462C543.993 333.263 543.685 333.164 543.288 333.164C542.693 333.164 542.194 333.394 541.79 333.855L541.259 333.175C541.79 332.559 542.499 332.25 543.384 332.25C544.057 332.25 544.588 332.438 544.977 332.814C545.374 333.182 545.572 333.685 545.572 334.322V337.753H544.616V336.925C544.234 337.562 543.649 337.881 542.863 337.881C542.36 337.881 541.943 337.735 541.61 337.445C541.284 337.148 541.121 336.776 541.121 336.33ZM542.13 336.266C542.13 336.486 542.215 336.666 542.385 336.808C542.555 336.942 542.771 337.01 543.033 337.01C543.458 337.01 543.823 336.861 544.127 336.563C544.432 336.259 544.584 335.915 544.584 335.533V335.193L543.044 335.49C542.718 335.554 542.484 335.65 542.343 335.777C542.201 335.898 542.13 336.061 542.13 336.266ZM548.593 337.679L546.362 332.378H547.52L549.082 336.447L550.601 332.378H551.716L549.22 338.635C549.043 339.088 548.827 339.428 548.572 339.655C548.317 339.888 547.959 340.005 547.499 340.005C547.194 340.005 546.936 339.959 546.723 339.867V338.943C546.914 339.063 547.141 339.124 547.403 339.124C547.637 339.124 547.828 339.056 547.977 338.922C548.125 338.787 548.257 338.571 548.37 338.274L548.593 337.679Z" fill="#6D7D93"/>
<path d="M602.662 336.393L603.501 335.884C603.671 336.231 603.855 336.489 604.053 336.659C604.251 336.829 604.524 336.914 604.871 336.914C605.261 336.914 605.551 336.794 605.742 336.553C605.94 336.305 606.04 335.983 606.04 335.586V330.253H607.091V335.597C607.091 336.27 606.882 336.818 606.465 337.243C606.047 337.668 605.501 337.881 604.829 337.881C604.319 337.881 603.876 337.753 603.501 337.498C603.132 337.243 602.853 336.875 602.662 336.393ZM610.817 337.881C610.194 337.881 609.691 337.682 609.309 337.286C608.927 336.882 608.735 336.33 608.735 335.629V332.378H609.766V335.586C609.766 336.011 609.886 336.344 610.127 336.585C610.368 336.818 610.669 336.935 611.03 336.935C611.292 336.935 611.526 336.879 611.731 336.765C611.936 336.652 612.096 336.503 612.209 336.319C612.322 336.135 612.404 335.94 612.453 335.735C612.51 335.529 612.538 335.321 612.538 335.108V332.378H613.569V337.753H612.56V336.946C612.22 337.569 611.639 337.881 610.817 337.881ZM615.335 337.753V332.378H616.344V333.185C616.684 332.562 617.265 332.25 618.087 332.25C618.71 332.25 619.213 332.452 619.595 332.856C619.977 333.253 620.169 333.801 620.169 334.503V337.753H619.138V334.545C619.138 334.12 619.018 333.791 618.777 333.557C618.536 333.316 618.235 333.196 617.874 333.196C617.612 333.196 617.378 333.253 617.173 333.366C616.968 333.479 616.808 333.628 616.695 333.812C616.582 333.996 616.497 334.191 616.44 334.396C616.39 334.602 616.366 334.811 616.366 335.023V337.753H615.335Z" fill="#6D7D93"/>
<path d="M288.396 217.15L256.655 268.809C256.483 269.088 256.393 269.408 256.393 269.736V301.966C256.393 302.944 257.185 303.737 258.163 303.737H625.54C626.517 303.737 627.31 302.944 627.31 301.966V266.87C627.31 266.564 627.231 266.264 627.081 265.998L596.014 211.049C595.317 209.816 593.527 209.86 592.891 211.125L561.986 272.579C561.299 273.945 559.319 273.856 558.757 272.433L526.457 190.618C526.202 189.971 525.592 189.534 524.897 189.5L494.458 188.004C493.661 187.965 492.937 188.463 492.688 189.221L460.648 287.065C460.113 288.699 457.797 288.688 457.278 287.048L426.558 190.02C426.1 188.573 424.153 188.335 423.36 189.63L392.928 239.338C392.193 240.539 390.417 240.443 389.817 239.169L359.537 174.923C358.858 173.482 356.769 173.602 356.259 175.111L324.738 268.383C324.252 269.822 322.298 270.021 321.532 268.709L291.433 217.184C290.759 216.029 289.096 216.01 288.396 217.15Z" fill="url(#paint0_linear_412_598)"/>
<path d="M257.277 269.186L289.281 217.126C289.981 215.987 291.643 216.006 292.318 217.16L322.417 268.66C323.183 269.971 325.136 269.773 325.623 268.334L357.143 175.109C357.654 173.6 359.742 173.48 360.422 174.921L390.701 239.134C391.302 240.408 393.077 240.505 393.813 239.304L424.245 189.62C425.038 188.326 426.985 188.564 427.443 190.01L458.162 286.99C458.682 288.629 460.997 288.641 461.533 287.007L493.573 189.213C493.821 188.455 494.546 187.956 495.342 187.995L525.782 189.49C526.476 189.524 527.087 189.962 527.342 190.608L559.642 272.382C560.204 273.805 562.183 273.894 562.871 272.528L593.776 211.104C594.412 209.84 596.201 209.796 596.898 211.028L628.195 266.356" stroke="#4E55FD" stroke-width="1.47836"/>
<path d="M472.393 160.327L472.393 306.392" stroke="#4E55FD" stroke-width="0.442622" stroke-linecap="round" stroke-dasharray="4.43 4.43"/>
<g filter="url(#filter1_d_412_598)">
<circle cx="472.393" cy="255.048" r="3.54098" fill="white"/>
<circle cx="472.393" cy="255.048" r="2.8018" stroke="#4E55FD" stroke-width="1.47836"/>
</g>
<g filter="url(#filter2_d_412_598)">
<rect x="450.139" y="148.344" width="47.1639" height="23.082" rx="7.08196" fill="white" shape-rendering="crispEdges"/>
<path d="M458.123 163.885V162.727C458.353 162.553 458.626 162.339 458.941 162.084C459.256 161.826 459.58 161.548 459.913 161.25C460.246 160.949 460.554 160.648 460.837 160.347C461.12 160.046 461.351 159.76 461.528 159.487C461.708 159.214 461.799 158.981 461.799 158.786C461.799 158.57 461.745 158.373 461.639 158.196C461.533 158.016 461.391 157.872 461.214 157.766C461.041 157.66 460.846 157.607 460.63 157.607C460.414 157.607 460.218 157.66 460.04 157.766C459.863 157.872 459.722 158.016 459.616 158.196C459.509 158.373 459.456 158.57 459.456 158.786H458.16C458.16 158.318 458.274 157.899 458.5 157.527C458.727 157.152 459.026 156.856 459.398 156.64C459.773 156.42 460.184 156.311 460.63 156.311C461.083 156.311 461.496 156.422 461.868 156.645C462.239 156.865 462.537 157.162 462.76 157.538C462.983 157.913 463.095 158.329 463.095 158.786C463.095 159.027 463.05 159.269 462.962 159.513C462.873 159.758 462.749 160.004 462.59 160.252C462.431 160.5 462.243 160.751 462.027 161.006C461.811 161.257 461.572 161.516 461.31 161.781C461.051 162.043 460.779 162.313 460.492 162.589H463.132V163.885H458.123ZM467.036 163.885V162.084H463.87V160.783L466.733 156.449H468.332V160.788H468.959V162.084H468.332V163.885H467.036ZM465.373 160.783L467.036 160.788L467.031 158.217L465.373 160.783ZM470.022 164.48L470.351 162.684H471.647L470.888 164.48H470.022ZM472.868 163.885L476.411 157.745H472.496V156.449H477.914V157.745L474.361 163.885H472.868ZM481.014 164.023C480.557 164.023 480.143 163.918 479.771 163.709C479.399 163.501 479.102 163.221 478.879 162.87C478.659 162.516 478.549 162.123 478.549 161.691C478.549 161.351 478.625 161.033 478.778 160.735C478.934 160.434 479.142 160.181 479.405 159.976C479.199 159.788 479.031 159.567 478.9 159.312C478.772 159.053 478.709 158.777 478.709 158.483C478.709 158.083 478.813 157.718 479.022 157.389C479.231 157.06 479.509 156.797 479.856 156.603C480.207 156.408 480.593 156.311 481.014 156.311C481.439 156.311 481.825 156.408 482.172 156.603C482.519 156.797 482.797 157.06 483.006 157.389C483.215 157.718 483.319 158.083 483.319 158.483C483.319 158.777 483.255 159.053 483.128 159.312C483.004 159.567 482.836 159.788 482.623 159.976C482.892 160.181 483.103 160.434 483.255 160.735C483.411 161.033 483.489 161.351 483.489 161.691C483.489 162.12 483.377 162.511 483.154 162.865C482.935 163.216 482.637 163.497 482.262 163.709C481.887 163.918 481.471 164.023 481.014 164.023ZM481.014 162.727C481.219 162.727 481.405 162.681 481.572 162.589C481.738 162.493 481.871 162.367 481.97 162.212C482.069 162.056 482.119 161.882 482.119 161.691C482.119 161.5 482.069 161.326 481.97 161.171C481.871 161.015 481.738 160.891 481.572 160.799C481.405 160.703 481.219 160.655 481.014 160.655C480.812 160.655 480.628 160.703 480.461 160.799C480.295 160.891 480.161 161.015 480.058 161.171C479.959 161.326 479.909 161.5 479.909 161.691C479.909 161.882 479.959 162.056 480.058 162.212C480.161 162.367 480.295 162.493 480.461 162.589C480.628 162.681 480.812 162.727 481.014 162.727ZM481.014 159.359C481.187 159.359 481.345 159.32 481.487 159.243C481.628 159.161 481.74 159.055 481.821 158.924C481.906 158.793 481.949 158.646 481.949 158.483C481.949 158.32 481.906 158.173 481.821 158.042C481.74 157.911 481.628 157.807 481.487 157.729C481.345 157.647 481.187 157.607 481.014 157.607C480.844 157.607 480.688 157.647 480.546 157.729C480.405 157.807 480.292 157.911 480.207 158.042C480.122 158.173 480.079 158.32 480.079 158.483C480.079 158.646 480.122 158.793 480.207 158.924C480.292 159.055 480.405 159.161 480.546 159.243C480.688 159.32 480.844 159.359 481.014 159.359ZM485.453 163.885L486.882 161.415C486.532 161.436 486.197 161.388 485.878 161.272C485.563 161.155 485.282 160.981 485.034 160.751C484.786 160.521 484.589 160.248 484.444 159.933C484.303 159.618 484.232 159.276 484.232 158.908C484.232 158.55 484.299 158.216 484.434 157.904C484.568 157.589 484.754 157.313 484.991 157.075C485.232 156.835 485.508 156.647 485.82 156.512C486.135 156.378 486.473 156.311 486.834 156.311C487.305 156.311 487.736 156.427 488.125 156.661C488.518 156.895 488.832 157.208 489.065 157.601C489.302 157.994 489.421 158.43 489.421 158.908C489.421 159.145 489.391 159.37 489.331 159.582C489.274 159.791 489.184 160.004 489.06 160.22L486.951 163.885H485.453ZM486.824 160.209C487.079 160.209 487.304 160.147 487.498 160.023C487.697 159.899 487.851 159.738 487.96 159.54C488.07 159.342 488.125 159.129 488.125 158.903C488.125 158.655 488.065 158.433 487.945 158.239C487.824 158.04 487.665 157.886 487.466 157.777C487.268 157.663 487.058 157.607 486.834 157.607C486.579 157.607 486.353 157.669 486.155 157.793C485.96 157.913 485.806 158.072 485.692 158.271C485.579 158.469 485.522 158.68 485.522 158.903C485.522 159.14 485.579 159.358 485.692 159.556C485.809 159.754 485.965 159.914 486.16 160.034C486.358 160.151 486.579 160.209 486.824 160.209Z" fill="#100A05"/>
</g>
<g clip-path="url(#clip0_412_598)">
<rect x="47.4746" y="91.2783" width="141.639" height="77.0163" rx="7.08196" fill="#4E55FD"/>
<rect x="49.6868" y="91.7209" width="138.983" height="76.131" rx="6.63933" fill="white" stroke="#EEEFF2" stroke-width="0.885245"/>
<path d="M58.7616 104.598H59.6734L63.0019 109.715V104.598H63.8075V110.901H62.8691L59.5583 105.846V110.901H58.7616V104.598ZM68.9568 109.458C68.7266 110.52 68.0627 111.052 66.965 111.052C66.2922 111.052 65.761 110.848 65.3804 110.423C64.9997 110.007 64.8138 109.423 64.8138 108.679C64.8138 107.944 65.0086 107.351 65.3981 106.891C65.7876 106.431 66.301 106.2 66.9384 106.2C67.6378 106.2 68.1601 106.439 68.4964 106.918C68.8328 107.396 69.0099 107.989 69.0099 108.715V108.821H65.5751L65.5663 108.874C65.5663 109.361 65.6902 109.741 65.9469 110.016C66.1948 110.299 66.5489 110.432 66.9915 110.432C67.3191 110.432 67.5758 110.361 67.7705 110.202C67.9653 110.051 68.1158 109.803 68.222 109.458H68.9568ZM68.2309 108.21C68.1955 107.776 68.0627 107.44 67.8325 107.192C67.6023 106.944 67.2925 106.82 66.9207 106.82C66.5489 106.82 66.2479 106.944 66.0089 107.192C65.761 107.44 65.6194 107.785 65.5751 108.21H68.2309ZM69.3915 106.333H70.2236L71.2682 110.096L72.1977 106.333H73.021L73.9859 110.096L75.0217 106.333H75.8007L74.34 110.901H73.5433L72.6049 107.289L71.6754 110.901H70.861L69.3915 106.333ZM83.2999 110.175V110.901H79.1215V104.598H79.9537V110.175H83.2999ZM87.8028 109.458C87.5726 110.52 86.9087 111.052 85.811 111.052C85.1382 111.052 84.6071 110.848 84.2264 110.423C83.8458 110.007 83.6599 109.423 83.6599 108.679C83.6599 107.944 83.8546 107.351 84.2441 106.891C84.6336 106.431 85.1471 106.2 85.7844 106.2C86.4838 106.2 87.0061 106.439 87.3425 106.918C87.6789 107.396 87.8559 107.989 87.8559 108.715V108.821H84.4212L84.4123 108.874C84.4123 109.361 84.5362 109.741 84.793 110.016C85.0408 110.299 85.3949 110.432 85.8376 110.432C86.1651 110.432 86.4218 110.361 86.6166 110.202C86.8113 110.051 86.9618 109.803 87.068 109.458H87.8028ZM87.0769 108.21C87.0415 107.776 86.9087 107.44 86.6785 107.192C86.4484 106.944 86.1385 106.82 85.7667 106.82C85.3949 106.82 85.094 106.944 84.8549 107.192C84.6071 107.44 84.4654 107.785 84.4212 108.21H87.0769ZM92.6992 110.299V110.892C92.5398 110.945 92.3716 110.981 92.1857 110.981C91.752 110.981 91.5306 110.751 91.5218 110.308C91.088 110.786 90.5392 111.034 89.8664 111.034C89.4149 111.034 89.0608 110.919 88.7952 110.689C88.5297 110.459 88.4057 110.14 88.4057 109.741C88.4057 108.927 88.9457 108.449 90.0257 108.316C90.0966 108.299 90.1939 108.29 90.3356 108.281C90.849 108.219 91.1588 108.148 91.2828 108.077C91.4156 107.98 91.4864 107.82 91.4864 107.59C91.4864 107.086 91.1411 106.838 90.4506 106.838C90.0966 106.838 89.8221 106.909 89.6451 107.05C89.4592 107.192 89.3529 107.431 89.3175 107.767H88.5828C88.5916 107.272 88.7687 106.891 89.1051 106.625C89.4415 106.351 89.9018 106.218 90.4949 106.218C91.1323 106.218 91.6103 106.36 91.929 106.661C92.0264 106.749 92.0972 106.873 92.1503 107.033C92.1946 107.183 92.2211 107.307 92.23 107.404C92.23 107.502 92.2388 107.652 92.2388 107.847C92.2388 108.068 92.23 108.405 92.2211 108.856C92.2034 109.317 92.2034 109.653 92.2034 109.874C92.2034 110.042 92.2211 110.158 92.2654 110.228C92.3097 110.299 92.3893 110.326 92.5133 110.326C92.5575 110.326 92.6195 110.317 92.6992 110.299ZM91.4864 108.538C91.4333 108.573 91.3713 108.608 91.3182 108.644C91.2562 108.67 91.1765 108.697 91.088 108.715C90.9995 108.732 90.9375 108.741 90.9021 108.75C90.8667 108.759 90.7959 108.768 90.672 108.785C90.548 108.803 90.4772 108.812 90.4772 108.812C90.2913 108.83 90.1674 108.847 90.1143 108.856C90.0611 108.865 89.9549 108.892 89.7956 108.936C89.6362 108.971 89.53 109.024 89.468 109.078C89.3972 109.131 89.3352 109.201 89.2733 109.308C89.2113 109.414 89.1847 109.538 89.1847 109.679C89.1847 109.91 89.2644 110.096 89.4238 110.237C89.5831 110.37 89.8133 110.441 90.0966 110.441C90.4506 110.441 90.7782 110.335 91.0615 110.122C91.3447 109.91 91.4864 109.653 91.4864 109.37V108.538ZM97.5247 104.598V110.901H96.8165V110.228C96.5244 110.759 96.0198 111.025 95.3116 111.025C94.6565 111.025 94.1431 110.813 93.7624 110.379C93.3818 109.945 93.1959 109.352 93.1959 108.608C93.1959 107.918 93.3729 107.351 93.727 106.891C94.0811 106.431 94.6034 106.2 95.2762 106.2C95.9313 106.2 96.427 106.448 96.7723 106.944V104.598H97.5247ZM95.3736 106.847C94.9398 106.847 94.5946 107.006 94.3467 107.316C94.0988 107.635 93.9749 108.059 93.9749 108.591C93.9749 109.148 94.0988 109.591 94.3555 109.919C94.6123 110.246 94.9575 110.405 95.3913 110.405C95.8251 110.405 96.1703 110.255 96.4182 109.936C96.666 109.618 96.79 109.184 96.79 108.617C96.79 108.121 96.666 107.697 96.4359 107.36C96.2057 107.024 95.8516 106.847 95.3736 106.847ZM102.046 107.661H101.294C101.241 107.112 100.869 106.829 100.178 106.829C99.8863 106.829 99.6562 106.891 99.4968 106.997C99.3286 107.112 99.2489 107.263 99.2489 107.449C99.2489 107.502 99.2489 107.555 99.2666 107.608C99.2755 107.661 99.2932 107.705 99.3286 107.741C99.364 107.776 99.3906 107.812 99.4171 107.838C99.4437 107.874 99.488 107.9 99.5499 107.927C99.6119 107.953 99.6562 107.971 99.6916 107.989C99.727 108.006 99.7801 108.033 99.8686 108.051C99.9571 108.068 100.019 108.086 100.055 108.095C100.09 108.104 100.152 108.121 100.258 108.139C100.364 108.166 100.426 108.183 100.462 108.183C100.674 108.237 100.842 108.272 100.949 108.299C101.055 108.334 101.205 108.387 101.4 108.467C101.595 108.546 101.736 108.626 101.843 108.715C101.94 108.803 102.029 108.918 102.108 109.069C102.188 109.219 102.232 109.387 102.232 109.573C102.232 110.016 102.055 110.379 101.71 110.644C101.365 110.91 100.904 111.043 100.338 111.043C99.7181 111.043 99.2401 110.91 98.9037 110.636C98.5673 110.37 98.3903 109.972 98.3725 109.458H99.1162C99.1516 110.104 99.5676 110.423 100.355 110.423C100.692 110.423 100.957 110.361 101.161 110.219C101.365 110.078 101.471 109.892 101.471 109.662C101.471 109.511 101.418 109.387 101.312 109.281C101.205 109.184 101.081 109.113 100.957 109.069C100.825 109.024 100.639 108.971 100.4 108.909C100.364 108.909 100.338 108.9 100.32 108.892C100.267 108.883 100.152 108.856 99.9748 108.821C99.7978 108.785 99.6739 108.75 99.603 108.723C99.5234 108.706 99.4083 108.67 99.2666 108.617C99.125 108.564 99.0188 108.511 98.948 108.458C98.8771 108.405 98.7975 108.334 98.7089 108.245C98.6204 108.157 98.5673 108.059 98.5319 107.944C98.4965 107.829 98.4788 107.697 98.4788 107.546C98.4788 107.139 98.6293 106.811 98.948 106.563C99.2666 106.324 99.6916 106.2 100.223 106.2C100.754 106.2 101.196 106.333 101.533 106.581C101.869 106.838 102.046 107.201 102.046 107.661Z" fill="#6D7D93"/>
<path d="M172.295 113.548C174.861 113.548 176.942 111.468 176.942 108.901C176.942 106.334 174.861 104.253 172.295 104.253C169.728 104.253 167.647 106.334 167.647 108.901C167.647 111.468 169.728 113.548 172.295 113.548Z" stroke="#266663" stroke-width="0.885245" stroke-linecap="round" stroke-linejoin="round"/>
<path d="M172.294 106.835V108.901" stroke="#266663" stroke-width="0.885245" stroke-linecap="round" stroke-linejoin="round"/>
<path d="M172.294 110.967H172.3H172.294Z" fill="#266663"/>
<path d="M172.294 110.967H172.3" stroke="#266663" stroke-width="1.32787" stroke-linecap="round" stroke-linejoin="round"/>
<path d="M64.4077 124.452V135.606H62.0016V128.356H59.2927V126.683H59.5796C61.2686 126.683 62.2565 125.95 62.5434 124.452H64.4077ZM75.3652 133.646V135.622H67.1908C67.1908 135.112 67.2546 134.65 67.3821 134.236C67.5095 133.821 67.6529 133.471 67.8123 133.184C67.9716 132.897 68.2266 132.594 68.5771 132.276C68.9118 131.957 69.2145 131.702 69.4695 131.511C69.7244 131.32 70.1068 131.049 70.6167 130.714C70.6805 130.666 70.8398 130.555 71.1266 130.379C71.3975 130.188 71.5887 130.061 71.7003 129.997C71.7959 129.917 71.9552 129.79 72.1783 129.599C72.3855 129.407 72.5289 129.248 72.6245 129.105C72.7201 128.977 72.7998 128.802 72.8954 128.595C72.975 128.388 73.0228 128.165 73.0228 127.942C73.0228 127.463 72.8635 127.065 72.5767 126.778C72.2899 126.491 71.9074 126.332 71.4294 126.332C70.2821 126.332 69.6766 127.145 69.6129 128.754H67.4458V128.515C67.4458 127.256 67.8123 126.252 68.5453 125.504C69.2783 124.755 70.2662 124.372 71.5091 124.372C72.6245 124.372 73.5487 124.691 74.2498 125.328C74.9509 125.966 75.3015 126.778 75.3015 127.782C75.3015 128.611 75.1102 129.264 74.7438 129.742C74.3613 130.236 73.7877 130.746 72.991 131.288C72.8794 131.367 72.6882 131.495 72.4014 131.686C72.1146 131.877 71.8756 132.021 71.7162 132.148C71.5569 132.26 71.3497 132.403 71.1266 132.578C70.8876 132.77 70.6805 132.945 70.5211 133.12C70.3459 133.295 70.2024 133.471 70.0909 133.646H75.3652ZM80.2517 124.388C80.8572 124.388 81.4149 124.516 81.8929 124.755C82.371 124.978 82.7693 125.28 83.0562 125.663C83.3589 126.029 83.6139 126.476 83.8051 126.985C83.9963 127.495 84.1397 128.005 84.2034 128.515C84.2831 129.025 84.315 129.551 84.315 130.125C84.315 131.893 83.9644 133.28 83.2314 134.283C82.5144 135.303 81.5265 135.797 80.2517 135.797C78.961 135.797 77.9571 135.303 77.2242 134.299C76.4912 133.295 76.1247 131.893 76.1247 130.109C76.1247 129.407 76.2044 128.738 76.3318 128.101C76.4753 127.463 76.6983 126.858 77.0011 126.284C77.2879 125.711 77.7181 125.249 78.2758 124.898C78.8335 124.563 79.4869 124.388 80.2517 124.388ZM80.2198 126.268C79.933 126.268 79.6621 126.332 79.439 126.46C79.216 126.587 79.0407 126.762 78.9132 127.017C78.7857 127.272 78.6742 127.511 78.5945 127.734C78.5149 127.957 78.4511 128.26 78.4192 128.627C78.3874 128.993 78.3714 129.28 78.3714 129.471C78.3714 129.662 78.3555 129.917 78.3555 130.236C78.3555 132.722 78.9929 133.981 80.2358 133.981C81.4787 133.981 82.0842 132.69 82.0842 130.125C82.0842 128.786 81.9408 127.814 81.638 127.193C81.3512 126.571 80.8731 126.268 80.2198 126.268ZM88.1339 133.12L88.1179 135.144C88.1179 136.068 87.9267 136.785 87.5124 137.295C87.0981 137.805 86.4608 138.124 85.6003 138.251V137.136C86.3174 136.929 86.6998 136.419 86.7476 135.606H85.6162V133.12H88.1339ZM97.6837 131.16V133.041H96.1859V135.606H94.0825V133.041H89.3022V130.953L94.1463 124.42H96.1859V131.16H97.6837ZM94.0825 131.16V127.017L91.1187 131.16H94.0825ZM105.789 124.547L105.773 126.476H101.2L100.77 128.898C101.295 128.388 101.981 128.117 102.825 128.117C103.909 128.117 104.769 128.451 105.407 129.121C106.06 129.79 106.379 130.682 106.379 131.766C106.379 132.945 105.996 133.901 105.199 134.65C104.419 135.415 103.415 135.781 102.172 135.781C101.009 135.781 100.053 135.494 99.3196 134.889C98.5866 134.283 98.1882 133.423 98.1245 132.308H100.355C100.403 132.802 100.594 133.2 100.929 133.503C101.264 133.805 101.678 133.949 102.188 133.949C102.745 133.949 103.208 133.758 103.574 133.359C103.925 132.961 104.116 132.451 104.116 131.814C104.116 131.192 103.941 130.698 103.59 130.316C103.239 129.949 102.761 129.758 102.172 129.758C101.455 129.758 100.897 130.077 100.499 130.682H98.4751L99.5586 124.547H105.789ZM115.153 127.352H112.986C112.779 126.523 112.285 126.093 111.488 126.093C110.245 126.093 109.544 127.209 109.369 129.407C109.99 128.579 110.819 128.149 111.855 128.149C112.874 128.149 113.719 128.499 114.372 129.184C115.026 129.886 115.344 130.762 115.344 131.83C115.36 132.993 114.994 133.949 114.245 134.682C113.496 135.431 112.54 135.797 111.377 135.797C110.07 135.797 109.034 135.319 108.285 134.347C107.552 133.375 107.17 132.021 107.17 130.268C107.17 128.435 107.568 127.001 108.333 125.95C109.114 124.898 110.181 124.372 111.52 124.372C112.54 124.372 113.352 124.643 113.99 125.153C114.627 125.679 115.01 126.412 115.153 127.352ZM111.329 129.838C110.819 129.838 110.405 130.045 110.07 130.427C109.751 130.826 109.576 131.32 109.576 131.909C109.576 132.515 109.751 133.009 110.07 133.391C110.405 133.774 110.835 133.965 111.345 133.965C111.871 133.965 112.301 133.774 112.635 133.375C112.986 132.993 113.145 132.499 113.145 131.893C113.145 131.304 112.986 130.81 112.635 130.427C112.301 130.045 111.871 129.838 111.329 129.838Z" fill="#0F0F14"/>
<rect x="58.0977" y="143.606" width="71.7048" height="7.74589" rx="3.87294" fill="#F4F5FF"/>
</g>
<path d="M58.0977 179.36H178.491C180.147 179.36 181.367 179.36 182.336 179.426C183.301 179.492 183.985 179.622 184.572 179.866C186.199 180.54 187.492 181.832 188.166 183.458C188.409 184.046 188.539 184.731 188.604 185.696C188.671 186.665 188.671 187.885 188.671 189.541V238.828C188.671 240.483 188.671 241.703 188.604 242.672C188.539 243.637 188.409 244.321 188.166 244.909C187.492 246.536 186.199 247.829 184.572 248.502C183.985 248.746 183.301 248.875 182.336 248.941C181.367 249.007 180.147 249.007 178.491 249.007H58.0977C56.4418 249.007 55.222 249.007 54.2529 248.941C53.2878 248.875 52.6034 248.746 52.0156 248.502C50.3888 247.829 49.0967 246.535 48.4229 244.909C48.1794 244.321 48.0492 243.637 47.9834 242.672C47.9173 241.703 47.917 240.483 47.917 238.828V189.541C47.917 187.885 47.9173 186.665 47.9834 185.696C48.0492 184.731 48.1794 184.046 48.4229 183.458C49.0967 181.832 50.389 180.54 52.0156 179.866C52.6034 179.622 53.2878 179.492 54.2529 179.426C55.222 179.36 56.4418 179.36 58.0977 179.36Z" stroke="#EEEFF2" stroke-width="0.885245"/>
<path d="M64.1345 196.159C64.0637 196.956 63.7804 197.584 63.3024 198.027C62.8244 198.469 62.187 198.691 61.3991 198.691C60.505 198.691 59.7968 198.399 59.2745 197.806C58.7434 197.212 58.4867 196.407 58.4867 195.398C58.4867 194.459 58.7434 193.671 59.2745 193.043C59.8057 192.414 60.5316 192.096 61.4699 192.096C62.1339 192.096 62.7181 192.282 63.2227 192.636C63.7362 192.999 64.0195 193.494 64.0726 194.132H63.2404C63.1519 193.725 62.9395 193.397 62.6208 193.167C62.3021 192.937 61.9126 192.813 61.4434 192.813C60.744 192.813 60.2129 193.061 59.8588 193.556C59.5047 194.052 59.3277 194.663 59.3277 195.389C59.3277 196.194 59.5136 196.823 59.8942 197.283C60.266 197.744 60.7883 197.974 61.4434 197.974C61.9745 197.974 62.4083 197.823 62.727 197.513C63.0457 197.204 63.2316 196.752 63.3024 196.159H64.1345ZM67.053 193.84C67.7435 193.84 68.2746 194.052 68.6642 194.477C69.0448 194.893 69.2396 195.477 69.2396 196.23C69.2396 197.009 69.0448 197.611 68.6642 198.036C68.2746 198.469 67.7346 198.682 67.0442 198.682C66.3448 198.682 65.796 198.469 65.4065 198.045C65.0081 197.62 64.8133 197.035 64.8133 196.274C64.8133 195.53 65.0081 194.937 65.4153 194.495C65.8137 194.061 66.3625 193.84 67.053 193.84ZM67.0353 194.477C66.5927 194.477 66.2386 194.636 65.9819 194.955C65.7163 195.283 65.5924 195.716 65.5924 196.256C65.5924 196.823 65.7163 197.257 65.973 197.575C66.2297 197.894 66.5927 198.045 67.053 198.045C67.4956 198.045 67.8409 197.885 68.0887 197.567C68.3366 197.248 68.4694 196.814 68.4694 196.247C68.4694 195.708 68.3366 195.274 68.0799 194.955C67.8232 194.636 67.4779 194.477 67.0353 194.477ZM70.8438 193.972V194.681C71.2156 194.132 71.7379 193.848 72.4018 193.848C72.933 193.848 73.3225 193.99 73.5615 194.273C73.8005 194.557 73.9244 194.964 73.9244 195.504V198.54H73.172V195.849C73.172 195.628 73.1631 195.451 73.1454 195.327C73.1277 195.203 73.0923 195.061 73.0392 194.92C72.9772 194.778 72.8799 194.672 72.7382 194.601C72.5966 194.539 72.4107 194.504 72.1894 194.504C71.3218 194.504 70.8881 195.052 70.8881 196.15V198.54H70.1356V193.972H70.8438ZM74.612 193.972H75.4529L76.7454 197.806L78.0024 193.972H78.7903L77.1172 198.54H76.3116L74.612 193.972ZM83.3847 197.097C83.1546 198.16 82.4906 198.691 81.3929 198.691C80.7201 198.691 80.189 198.487 79.8083 198.062C79.4277 197.646 79.2418 197.062 79.2418 196.318C79.2418 195.584 79.4365 194.99 79.826 194.53C80.2156 194.07 80.729 193.84 81.3664 193.84C82.0657 193.84 82.588 194.079 82.9244 194.557C83.2608 195.035 83.4378 195.628 83.4378 196.354V196.46H80.0031L79.9942 196.513C79.9942 197 80.1182 197.381 80.3749 197.655C80.6228 197.938 80.9769 198.071 81.4195 198.071C81.747 198.071 82.0038 198 82.1985 197.841C82.3933 197.69 82.5438 197.443 82.65 197.097H83.3847ZM82.6588 195.849C82.6234 195.415 82.4906 195.079 82.2605 194.831C82.0303 194.583 81.7205 194.459 81.3487 194.459C80.9769 194.459 80.6759 194.583 80.4369 194.831C80.189 195.079 80.0474 195.424 80.0031 195.849H82.6588ZM86.6168 193.866L86.608 194.654C86.5549 194.645 86.4929 194.645 86.4132 194.645C86.1742 194.645 85.9618 194.681 85.7847 194.751C85.6077 194.822 85.4749 194.92 85.3686 195.035C85.2624 195.159 85.1827 195.3 85.1119 195.477C85.05 195.654 85.0057 195.831 84.988 196.008C84.9703 196.186 84.9614 196.389 84.9614 196.61V198.54H84.209V193.972H84.926V194.955C85.227 194.229 85.7847 193.866 86.6168 193.866ZM90.574 195.3H89.8215C89.7684 194.751 89.3966 194.468 88.7061 194.468C88.414 194.468 88.1838 194.53 88.0245 194.636C87.8563 194.751 87.7766 194.902 87.7766 195.088C87.7766 195.141 87.7766 195.194 87.7943 195.247C87.8031 195.3 87.8208 195.345 87.8563 195.38C87.8917 195.415 87.9182 195.451 87.9448 195.477C87.9713 195.513 88.0156 195.539 88.0776 195.566C88.1395 195.592 88.1838 195.61 88.2192 195.628C88.2546 195.646 88.3077 195.672 88.3963 195.69C88.4848 195.708 88.5467 195.725 88.5822 195.734C88.6176 195.743 88.6795 195.761 88.7858 195.778C88.892 195.805 88.954 195.823 88.9894 195.823C89.2018 195.876 89.37 195.911 89.4763 195.938C89.5825 195.973 89.733 196.026 89.9277 196.106C90.1225 196.186 90.2641 196.265 90.3703 196.354C90.4677 196.442 90.5563 196.557 90.6359 196.708C90.7156 196.858 90.7599 197.027 90.7599 197.212C90.7599 197.655 90.5828 198.018 90.2376 198.284C89.8923 198.549 89.432 198.682 88.8654 198.682C88.2458 198.682 87.7677 198.549 87.4313 198.275C87.0949 198.009 86.9179 197.611 86.9002 197.097H87.6438C87.6792 197.744 88.0953 198.062 88.8831 198.062C89.2195 198.062 89.4851 198 89.6887 197.859C89.8923 197.717 89.9985 197.531 89.9985 197.301C89.9985 197.15 89.9454 197.027 89.8392 196.92C89.733 196.823 89.609 196.752 89.4851 196.708C89.3523 196.664 89.1664 196.61 88.9274 196.548C88.892 196.548 88.8654 196.54 88.8477 196.531C88.7946 196.522 88.6795 196.495 88.5025 196.46C88.3254 196.425 88.2015 196.389 88.1307 196.363C88.051 196.345 87.9359 196.309 87.7943 196.256C87.6526 196.203 87.5464 196.15 87.4756 196.097C87.4048 196.044 87.3251 195.973 87.2366 195.885C87.1481 195.796 87.0949 195.699 87.0595 195.584C87.0241 195.468 87.0064 195.336 87.0064 195.185C87.0064 194.778 87.1569 194.45 87.4756 194.203C87.7943 193.964 88.2192 193.84 88.7504 193.84C89.2815 193.84 89.7241 193.972 90.0605 194.22C90.3969 194.477 90.574 194.84 90.574 195.3ZM95.6553 197.938V198.531C95.4959 198.585 95.3277 198.62 95.1418 198.62C94.708 198.62 94.4867 198.39 94.4779 197.947C94.0441 198.425 93.4953 198.673 92.8225 198.673C92.371 198.673 92.0169 198.558 91.7513 198.328C91.4858 198.098 91.3618 197.779 91.3618 197.381C91.3618 196.566 91.9018 196.088 92.9818 195.955C93.0526 195.938 93.15 195.929 93.2917 195.92C93.8051 195.858 94.1149 195.787 94.2389 195.716C94.3717 195.619 94.4425 195.46 94.4425 195.229C94.4425 194.725 94.0972 194.477 93.4067 194.477C93.0526 194.477 92.7782 194.548 92.6012 194.689C92.4153 194.831 92.309 195.07 92.2736 195.407H91.5389C91.5477 194.911 91.7248 194.53 92.0612 194.265C92.3976 193.99 92.8579 193.857 93.451 193.857C94.0884 193.857 94.5664 193.999 94.8851 194.3C94.9825 194.388 95.0533 194.512 95.1064 194.672C95.1507 194.822 95.1772 194.946 95.1861 195.044C95.1861 195.141 95.1949 195.291 95.1949 195.486C95.1949 195.708 95.1861 196.044 95.1772 196.495C95.1595 196.956 95.1595 197.292 95.1595 197.513C95.1595 197.682 95.1772 197.797 95.2215 197.867C95.2658 197.938 95.3454 197.965 95.4694 197.965C95.5136 197.965 95.5756 197.956 95.6553 197.938ZM94.4425 196.177C94.3894 196.212 94.3274 196.247 94.2743 196.283C94.2123 196.309 94.1326 196.336 94.0441 196.354C93.9556 196.371 93.8936 196.38 93.8582 196.389C93.8228 196.398 93.752 196.407 93.6281 196.425C93.5041 196.442 93.4333 196.451 93.4333 196.451C93.2474 196.469 93.1235 196.487 93.0703 196.495C93.0172 196.504 92.911 196.531 92.7517 196.575C92.5923 196.61 92.4861 196.664 92.4241 196.717C92.3533 196.77 92.2913 196.841 92.2294 196.947C92.1674 197.053 92.1408 197.177 92.1408 197.319C92.1408 197.549 92.2205 197.735 92.3799 197.876C92.5392 198.009 92.7694 198.08 93.0526 198.08C93.4067 198.08 93.7343 197.974 94.0176 197.761C94.3008 197.549 94.4425 197.292 94.4425 197.009V196.177ZM98.3208 193.972V194.592H97.409V197.257C97.409 197.407 97.409 197.505 97.409 197.549C97.409 197.602 97.4267 197.664 97.4621 197.744C97.4887 197.823 97.5418 197.876 97.6126 197.894C97.6834 197.921 97.7808 197.929 97.9136 197.929C98.0198 197.929 98.1615 197.921 98.3208 197.903V198.549C98.1084 198.576 97.9136 198.585 97.7454 198.585C97.5329 198.585 97.3559 198.567 97.2143 198.514C97.0726 198.469 96.9575 198.416 96.8867 198.354C96.8159 198.301 96.7628 198.195 96.7274 198.045C96.692 197.894 96.6654 197.77 96.6654 197.664C96.6566 197.558 96.6566 197.389 96.6566 197.142V197.106V197.062V197.018V194.592H95.8864V193.972H96.6566V192.618H97.409V193.972H98.3208ZM99.9535 192.237V193.158H99.1922V192.237H99.9535ZM99.9535 193.972V198.54H99.1922V193.972H99.9535ZM103.12 193.84C103.81 193.84 104.341 194.052 104.731 194.477C105.112 194.893 105.306 195.477 105.306 196.23C105.306 197.009 105.112 197.611 104.731 198.036C104.341 198.469 103.801 198.682 103.111 198.682C102.412 198.682 101.863 198.469 101.473 198.045C101.075 197.62 100.88 197.035 100.88 196.274C100.88 195.53 101.075 194.937 101.482 194.495C101.88 194.061 102.429 193.84 103.12 193.84ZM103.102 194.477C102.659 194.477 102.305 194.636 102.049 194.955C101.783 195.283 101.659 195.716 101.659 196.256C101.659 196.823 101.783 197.257 102.04 197.575C102.297 197.894 102.659 198.045 103.12 198.045C103.562 198.045 103.908 197.885 104.156 197.567C104.403 197.248 104.536 196.814 104.536 196.247C104.536 195.708 104.403 195.274 104.147 194.955C103.89 194.636 103.545 194.477 103.102 194.477ZM106.911 193.972V194.681C107.282 194.132 107.805 193.848 108.469 193.848C109 193.848 109.389 193.99 109.628 194.273C109.867 194.557 109.991 194.964 109.991 195.504V198.54H109.239V195.849C109.239 195.628 109.23 195.451 109.212 195.327C109.195 195.203 109.159 195.061 109.106 194.92C109.044 194.778 108.947 194.672 108.805 194.601C108.663 194.539 108.477 194.504 108.256 194.504C107.389 194.504 106.955 195.052 106.955 196.15V198.54H106.202V193.972H106.911Z" fill="#6D7D93"/>
<path d="M172.294 201.188C174.86 201.188 176.941 199.107 176.941 196.54C176.941 193.973 174.86 191.893 172.294 191.893C169.727 191.893 167.646 193.973 167.646 196.54C167.646 199.107 169.727 201.188 172.294 201.188Z" stroke="#A0AEC0" stroke-width="0.885245" stroke-linecap="round" stroke-linejoin="round"/>
<path d="M172.292 194.475V196.54" stroke="#A0AEC0" stroke-width="0.885245" stroke-linecap="round" stroke-linejoin="round"/>
<path d="M172.292 198.605H172.298H172.292Z" fill="#A0AEC0"/>
<path d="M172.292 198.605H172.298" stroke="#A0AEC0" stroke-width="1.32787" stroke-linecap="round" stroke-linejoin="round"/>
<path d="M66.511 221.121V223.097H58.3367C58.3367 222.587 58.4004 222.125 58.5279 221.711C58.6554 221.297 58.7988 220.946 58.9581 220.659C59.1175 220.372 59.3724 220.07 59.723 219.751C60.0576 219.432 60.3603 219.177 60.6153 218.986C60.8702 218.795 61.2527 218.524 61.7626 218.189C61.8263 218.142 61.9857 218.03 62.2725 217.855C62.5434 217.664 62.7346 217.536 62.8461 217.472C62.9417 217.393 63.1011 217.265 63.3241 217.074C63.5313 216.883 63.6747 216.723 63.7703 216.58C63.8659 216.453 63.9456 216.277 64.0412 216.07C64.1209 215.863 64.1687 215.64 64.1687 215.417C64.1687 214.939 64.0093 214.54 63.7225 214.254C63.4357 213.967 63.0533 213.807 62.5752 213.807C61.4279 213.807 60.8224 214.62 60.7587 216.23H58.5916V215.99C58.5916 214.732 58.9581 213.728 59.6911 212.979C60.4241 212.23 61.412 211.848 62.6549 211.848C63.7703 211.848 64.6945 212.166 65.3956 212.804C66.0967 213.441 66.4473 214.254 66.4473 215.258C66.4473 216.086 66.2561 216.739 65.8896 217.217C65.5072 217.711 64.9335 218.221 64.1368 218.763C64.0253 218.843 63.834 218.97 63.5472 219.161C63.2604 219.353 63.0214 219.496 62.862 219.624C62.7027 219.735 62.4956 219.878 62.2725 220.054C62.0335 220.245 61.8263 220.42 61.667 220.596C61.4917 220.771 61.3483 220.946 61.2367 221.121H66.511ZM75.5405 218.636V220.516H74.0426V223.081H71.9393V220.516H67.159V218.428L72.003 211.895H74.0426V218.636H75.5405ZM71.9393 218.636V214.493L68.9755 218.636H71.9393ZM83.6457 212.023L83.6298 213.951H79.0566L78.6264 216.373C79.1522 215.863 79.8374 215.592 80.6819 215.592C81.7655 215.592 82.6259 215.927 83.2633 216.596C83.9166 217.265 84.2353 218.158 84.2353 219.241C84.2353 220.42 83.8529 221.376 83.0562 222.125C82.2754 222.89 81.2715 223.257 80.0286 223.257C78.8654 223.257 77.9093 222.97 77.1764 222.364C76.4434 221.759 76.045 220.898 75.9813 219.783H78.2121C78.2599 220.277 78.4511 220.675 78.7857 220.978C79.1204 221.281 79.5347 221.424 80.0446 221.424C80.6023 221.424 81.0644 221.233 81.4308 220.835C81.7814 220.436 81.9726 219.926 81.9726 219.289C81.9726 218.667 81.7973 218.174 81.4468 217.791C81.0962 217.425 80.6182 217.233 80.0286 217.233C79.3116 217.233 78.7539 217.552 78.3555 218.158H76.3318L77.4154 212.023H83.6457ZM88.1339 220.596L88.1179 222.619C88.1179 223.543 87.9267 224.26 87.5124 224.77C87.0981 225.28 86.4608 225.599 85.6003 225.726V224.611C86.3174 224.404 86.6998 223.894 86.7476 223.081H85.6162V220.596H88.1339ZM91.4215 217.154C90.8797 216.978 90.4813 216.692 90.1945 216.293C89.9077 215.895 89.7643 215.417 89.7643 214.843C89.7643 213.983 90.1308 213.266 90.8319 212.692C91.5489 212.118 92.4413 211.832 93.5089 211.832C94.5924 211.832 95.5007 212.118 96.2018 212.692C96.9029 213.266 97.2535 213.983 97.2535 214.843C97.2535 216.022 96.7117 216.803 95.6282 217.154C96.2815 217.313 96.7914 217.648 97.1579 218.126C97.5403 218.604 97.7156 219.193 97.7156 219.878C97.7156 220.898 97.3331 221.727 96.5683 222.348C95.8034 222.97 94.7836 223.273 93.5248 223.273C92.2501 223.273 91.2462 222.97 90.4813 222.348C89.7165 221.727 89.3341 220.898 89.3341 219.878C89.3341 219.193 89.5093 218.604 89.8918 218.126C90.2583 217.648 90.7682 217.313 91.4215 217.154ZM93.5089 213.537C93.0149 213.537 92.6165 213.68 92.2979 213.935C91.9951 214.206 91.8358 214.556 91.8358 214.987C91.8358 215.449 91.9951 215.815 92.2979 216.086C92.6165 216.357 93.0149 216.484 93.5248 216.484C94.0506 216.484 94.4649 216.357 94.7677 216.086C95.0704 215.815 95.2139 215.449 95.2139 214.987C95.2139 214.54 95.0704 214.174 94.7677 213.919C94.4649 213.664 94.0506 213.537 93.5089 213.537ZM93.4611 217.966C92.9193 217.966 92.4572 218.142 92.1066 218.46C91.7561 218.795 91.5808 219.225 91.5808 219.735C91.5808 220.277 91.772 220.723 92.1226 221.058C92.4731 221.392 92.9352 221.552 93.5089 221.552C94.0984 221.552 94.5765 221.392 94.927 221.058C95.2776 220.739 95.4529 220.293 95.4529 219.751C95.4529 219.225 95.2776 218.795 94.9111 218.46C94.5446 218.142 94.0666 217.966 93.4611 217.966ZM106.155 212.023L106.14 213.887C104.913 215.242 104.02 216.628 103.463 218.062C102.905 219.496 102.57 221.169 102.459 223.081H100.116C100.116 221.743 100.499 220.165 101.264 218.317C102.028 216.469 102.889 215.05 103.861 214.062H98.5388V212.023H106.155ZM115.01 212.023L114.994 213.887C113.767 215.242 112.874 216.628 112.317 218.062C111.759 219.496 111.424 221.169 111.313 223.081H108.97C108.97 221.743 109.353 220.165 110.118 218.317C110.883 216.469 111.743 215.05 112.715 214.062H107.393V212.023H115.01Z" fill="#111827"/>
<rect x="58.0977" y="231.081" width="64.6229" height="7.74589" rx="3.87294" fill="#F4F5FF"/>
<path d="M58.0977 260.516H178.491C180.147 260.516 181.367 260.516 182.336 260.582C183.301 260.648 183.985 260.778 184.572 261.021C186.199 261.695 187.492 262.987 188.166 264.614C188.409 265.202 188.539 265.886 188.604 266.852C188.671 267.821 188.671 269.04 188.671 270.696V319.983C188.671 321.639 188.671 322.859 188.604 323.828C188.539 324.793 188.409 325.477 188.166 326.064C187.492 327.691 186.199 328.984 184.572 329.658C183.985 329.902 183.301 330.031 182.336 330.097C181.367 330.163 180.147 330.163 178.491 330.163H58.0977C56.4418 330.163 55.222 330.163 54.2529 330.097C53.2878 330.031 52.6034 329.902 52.0156 329.658C50.3888 328.984 49.0967 327.691 48.4229 326.064C48.1794 325.477 48.0492 324.793 47.9834 323.828C47.9173 322.859 47.917 321.639 47.917 319.983V270.696C47.917 269.04 47.9173 267.821 47.9834 266.852C48.0492 265.886 48.1794 265.202 48.4229 264.614C49.0967 262.988 50.389 261.695 52.0156 261.021C52.6034 260.778 53.2878 260.648 54.2529 260.582C55.222 260.516 56.4418 260.516 58.0977 260.516Z" stroke="#EEEFF2" stroke-width="0.885245"/>
<path d="M58.7611 273.393H59.6729L63.0014 278.51V273.393H63.807V279.696H62.8686L59.5578 274.641V279.696H58.7611V273.393ZM68.9563 278.253C68.7261 279.315 68.0622 279.847 66.9645 279.847C66.2917 279.847 65.7606 279.643 65.3799 279.218C64.9992 278.802 64.8133 278.218 64.8133 277.474C64.8133 276.739 65.0081 276.146 65.3976 275.686C65.7871 275.226 66.3005 274.995 66.9379 274.995C67.6373 274.995 68.1596 275.234 68.496 275.712C68.8323 276.19 69.0094 276.784 69.0094 277.509V277.616H65.5746L65.5658 277.669C65.5658 278.156 65.6897 278.536 65.9465 278.811C66.1943 279.094 66.5484 279.227 66.991 279.227C67.3186 279.227 67.5753 279.156 67.7701 278.997C67.9648 278.846 68.1153 278.598 68.2215 278.253H68.9563ZM68.2304 277.005C68.195 276.571 68.0622 276.235 67.832 275.987C67.6019 275.739 67.292 275.615 66.9202 275.615C66.5484 275.615 66.2474 275.739 66.0084 275.987C65.7606 276.235 65.6189 276.58 65.5746 277.005H68.2304ZM69.391 275.128H70.2232L71.2677 278.89L72.1972 275.128H73.0205L73.9854 278.89L75.0212 275.128H75.8002L74.3395 279.696H73.5428L72.6045 276.084L71.675 279.696H70.8605L69.391 275.128ZM81.7679 273.243C82.724 273.243 83.4676 273.544 83.9987 274.146C84.5299 274.748 84.7955 275.527 84.7955 276.491C84.7955 277.465 84.5299 278.271 84.0076 278.899C83.4764 279.537 82.7328 279.847 81.7768 279.847C81.281 279.847 80.8473 279.758 80.4578 279.581C80.0682 279.404 79.7496 279.165 79.5017 278.846C79.2538 278.536 79.0679 278.182 78.944 277.775C78.8201 277.377 78.7581 276.943 78.7581 276.474C78.7581 275.491 79.0237 274.703 79.5725 274.119C80.1214 273.535 80.8473 273.243 81.7679 273.243ZM81.7679 273.969C81.0597 273.969 80.5197 274.216 80.1479 274.712C79.7761 275.208 79.5814 275.81 79.5814 276.536C79.5814 277.332 79.785 277.961 80.1833 278.43C80.5817 278.899 81.1128 279.129 81.7768 279.129C82.4407 279.129 82.9718 278.899 83.3702 278.421C83.7597 277.952 83.9633 277.324 83.9633 276.536C83.9633 275.757 83.7597 275.137 83.3614 274.668C82.963 274.208 82.4319 273.969 81.7679 273.969ZM86.4134 275.128V275.774C86.7409 275.252 87.2544 274.987 87.9537 274.987C88.5911 274.987 89.0957 275.208 89.4675 275.633C89.8393 276.067 90.034 276.651 90.034 277.386C90.034 278.129 89.8481 278.713 89.4763 279.156C89.1045 279.599 88.6088 279.811 87.9891 279.811C87.334 279.811 86.8206 279.563 86.4576 279.059V281.458H85.7052V275.128H86.4134ZM87.8386 275.615C87.396 275.615 87.0508 275.774 86.8029 276.093C86.555 276.412 86.4311 276.846 86.4311 277.394C86.4311 277.952 86.555 278.386 86.8117 278.705C87.0685 279.023 87.4226 279.183 87.8652 279.183C88.2901 279.183 88.6353 279.023 88.8832 278.705C89.1311 278.386 89.255 277.952 89.255 277.403C89.255 276.846 89.1222 276.412 88.8744 276.093C88.6265 275.774 88.2812 275.615 87.8386 275.615ZM91.6609 275.128V275.774C91.9884 275.252 92.5019 274.987 93.2012 274.987C93.8386 274.987 94.3432 275.208 94.715 275.633C95.0868 276.067 95.2815 276.651 95.2815 277.386C95.2815 278.129 95.0956 278.713 94.7238 279.156C94.352 279.599 93.8563 279.811 93.2366 279.811C92.5815 279.811 92.0681 279.563 91.7051 279.059V281.458H90.9527V275.128H91.6609ZM93.0861 275.615C92.6435 275.615 92.2982 275.774 92.0504 276.093C91.8025 276.412 91.6786 276.846 91.6786 277.394C91.6786 277.952 91.8025 278.386 92.0592 278.705C92.3159 279.023 92.67 279.183 93.1127 279.183C93.5376 279.183 93.8828 279.023 94.1307 278.705C94.3786 278.386 94.5025 277.952 94.5025 277.403C94.5025 276.846 94.3697 276.412 94.1218 276.093C93.874 275.774 93.5287 275.615 93.0861 275.615ZM98.2008 274.995C98.8913 274.995 99.4225 275.208 99.812 275.633C100.193 276.049 100.387 276.633 100.387 277.386C100.387 278.165 100.193 278.767 99.812 279.191C99.4225 279.625 98.8825 279.838 98.192 279.838C97.4926 279.838 96.9438 279.625 96.5543 279.2C96.1559 278.775 95.9612 278.191 95.9612 277.43C95.9612 276.686 96.1559 276.093 96.5631 275.65C96.9615 275.217 97.5103 274.995 98.2008 274.995ZM98.1831 275.633C97.7405 275.633 97.3864 275.792 97.1297 276.111C96.8641 276.438 96.7402 276.872 96.7402 277.412C96.7402 277.979 96.8641 278.412 97.1208 278.731C97.3775 279.05 97.7405 279.2 98.2008 279.2C98.6434 279.2 98.9887 279.041 99.2366 278.722C99.4844 278.404 99.6172 277.97 99.6172 277.403C99.6172 276.863 99.4844 276.429 99.2277 276.111C98.971 275.792 98.6257 275.633 98.1831 275.633ZM103.665 275.022L103.656 275.81C103.603 275.801 103.541 275.801 103.461 275.801C103.222 275.801 103.01 275.836 102.833 275.907C102.656 275.978 102.523 276.075 102.417 276.19C102.31 276.314 102.231 276.456 102.16 276.633C102.098 276.81 102.054 276.987 102.036 277.164C102.018 277.341 102.009 277.545 102.009 277.766V279.696H101.257V275.128H101.974V276.111C102.275 275.385 102.833 275.022 103.665 275.022ZM106.188 275.128V275.748H105.276V278.412C105.276 278.563 105.276 278.66 105.276 278.705C105.276 278.758 105.294 278.82 105.329 278.899C105.356 278.979 105.409 279.032 105.48 279.05C105.55 279.076 105.648 279.085 105.781 279.085C105.887 279.085 106.028 279.076 106.188 279.059V279.705C105.975 279.731 105.781 279.74 105.612 279.74C105.4 279.74 105.223 279.723 105.081 279.669C104.94 279.625 104.824 279.572 104.754 279.51C104.683 279.457 104.63 279.351 104.594 279.2C104.559 279.05 104.532 278.926 104.532 278.82C104.523 278.713 104.523 278.545 104.523 278.297V278.262V278.218V278.173V275.748H103.753V275.128H104.523V273.774H105.276V275.128H106.188ZM110.813 275.128L110.804 279.696H110.104V278.979C109.715 279.546 109.193 279.82 108.529 279.82C108.051 279.82 107.67 279.687 107.404 279.422C107.139 279.156 107.006 278.775 107.006 278.271V275.128H107.758V278.067C107.758 278.43 107.829 278.705 107.971 278.89C108.113 279.076 108.36 279.165 108.723 279.165C109.609 279.165 110.06 278.616 110.06 277.518V275.128H110.813ZM112.651 275.128V275.836C113.023 275.288 113.545 275.004 114.209 275.004C114.74 275.004 115.13 275.146 115.369 275.429C115.608 275.712 115.731 276.12 115.731 276.66V279.696H114.979V277.005C114.979 276.784 114.97 276.607 114.952 276.483C114.935 276.359 114.899 276.217 114.846 276.075C114.784 275.934 114.687 275.828 114.545 275.757C114.404 275.695 114.218 275.659 113.996 275.659C113.129 275.659 112.695 276.208 112.695 277.306V279.696H111.943V275.128H112.651ZM117.658 273.393V274.314H116.897V273.393H117.658ZM117.658 275.128V279.696H116.897V275.128H117.658ZM120.78 275.128V275.748H119.869V278.412C119.869 278.563 119.869 278.66 119.869 278.705C119.869 278.758 119.886 278.82 119.922 278.899C119.948 278.979 120.001 279.032 120.072 279.05C120.143 279.076 120.24 279.085 120.373 279.085C120.479 279.085 120.621 279.076 120.78 279.059V279.705C120.568 279.731 120.373 279.74 120.205 279.74C119.993 279.74 119.816 279.723 119.674 279.669C119.532 279.625 119.417 279.572 119.346 279.51C119.276 279.457 119.222 279.351 119.187 279.2C119.152 279.05 119.125 278.926 119.125 278.82C119.116 278.713 119.116 278.545 119.116 278.297V278.262V278.218V278.173V275.748H118.346V275.128H119.116V273.774H119.869V275.128H120.78ZM122.413 273.393V274.314H121.652V273.393H122.413ZM122.413 275.128V279.696H121.652V275.128H122.413ZM127.483 278.253C127.253 279.315 126.589 279.847 125.491 279.847C124.818 279.847 124.287 279.643 123.906 279.218C123.526 278.802 123.34 278.218 123.34 277.474C123.34 276.739 123.535 276.146 123.924 275.686C124.314 275.226 124.827 274.995 125.464 274.995C126.164 274.995 126.686 275.234 127.022 275.712C127.359 276.19 127.536 276.784 127.536 277.509V277.616H124.101L124.092 277.669C124.092 278.156 124.216 278.536 124.473 278.811C124.721 279.094 125.075 279.227 125.517 279.227C125.845 279.227 126.102 279.156 126.296 278.997C126.491 278.846 126.642 278.598 126.748 278.253H127.483ZM126.757 277.005C126.721 276.571 126.589 276.235 126.358 275.987C126.128 275.739 125.818 275.615 125.447 275.615C125.075 275.615 124.774 275.739 124.535 275.987C124.287 276.235 124.145 276.58 124.101 277.005H126.757ZM131.724 276.456H130.972C130.918 275.907 130.547 275.624 129.856 275.624C129.564 275.624 129.334 275.686 129.174 275.792C129.006 275.907 128.927 276.058 128.927 276.244C128.927 276.297 128.927 276.35 128.944 276.403C128.953 276.456 128.971 276.5 129.006 276.536C129.042 276.571 129.068 276.607 129.095 276.633C129.121 276.669 129.166 276.695 129.228 276.722C129.29 276.748 129.334 276.766 129.369 276.784C129.405 276.801 129.458 276.828 129.546 276.846C129.635 276.863 129.697 276.881 129.732 276.89C129.768 276.899 129.83 276.916 129.936 276.934C130.042 276.961 130.104 276.978 130.139 276.978C130.352 277.031 130.52 277.067 130.626 277.093C130.733 277.129 130.883 277.182 131.078 277.262C131.273 277.341 131.414 277.421 131.52 277.509C131.618 277.598 131.706 277.713 131.786 277.864C131.866 278.014 131.91 278.182 131.91 278.368C131.91 278.811 131.733 279.174 131.388 279.439C131.042 279.705 130.582 279.838 130.015 279.838C129.396 279.838 128.918 279.705 128.581 279.43C128.245 279.165 128.068 278.767 128.05 278.253H128.794C128.829 278.899 129.245 279.218 130.033 279.218C130.37 279.218 130.635 279.156 130.839 279.014C131.042 278.873 131.149 278.687 131.149 278.457C131.149 278.306 131.095 278.182 130.989 278.076C130.883 277.979 130.759 277.908 130.635 277.864C130.502 277.819 130.316 277.766 130.077 277.704C130.042 277.704 130.015 277.695 129.998 277.687C129.945 277.678 129.83 277.651 129.653 277.616C129.475 277.58 129.352 277.545 129.281 277.518C129.201 277.501 129.086 277.465 128.944 277.412C128.803 277.359 128.696 277.306 128.626 277.253C128.555 277.2 128.475 277.129 128.387 277.04C128.298 276.952 128.245 276.854 128.21 276.739C128.174 276.624 128.156 276.491 128.156 276.341C128.156 275.934 128.307 275.606 128.626 275.358C128.944 275.119 129.369 274.995 129.9 274.995C130.432 274.995 130.874 275.128 131.211 275.376C131.547 275.633 131.724 275.996 131.724 276.456Z" fill="#6D7D93"/>
<path d="M172.294 282.343C174.86 282.343 176.941 280.263 176.941 277.696C176.941 275.129 174.86 273.048 172.294 273.048C169.727 273.048 167.646 275.129 167.646 277.696C167.646 280.263 169.727 282.343 172.294 282.343Z" stroke="#A0AEC0" stroke-width="0.885245" stroke-linecap="round" stroke-linejoin="round"/>
<path d="M172.292 275.63V277.696" stroke="#A0AEC0" stroke-width="0.885245" stroke-linecap="round" stroke-linejoin="round"/>
<path d="M172.292 279.761H172.298H172.292Z" fill="#A0AEC0"/>
<path d="M172.292 279.761H172.298" stroke="#A0AEC0" stroke-width="1.32787" stroke-linecap="round" stroke-linejoin="round"/>
<path d="M66.3039 293.179L66.2879 295.043C65.061 296.397 64.1687 297.784 63.611 299.218C63.0533 300.652 62.7186 302.325 62.6071 304.237H60.2647C60.2647 302.899 60.6472 301.321 61.412 299.473C62.1769 297.624 63.0373 296.206 64.0093 295.218H58.6872V293.179H66.3039ZM69.2783 298.309C68.7365 298.134 68.3381 297.847 68.0513 297.449C67.7645 297.051 67.6211 296.573 67.6211 295.999C67.6211 295.139 67.9876 294.421 68.6887 293.848C69.4057 293.274 70.2981 292.987 71.3657 292.987C72.4492 292.987 73.3575 293.274 74.0586 293.848C74.7597 294.421 75.1102 295.139 75.1102 295.999C75.1102 297.178 74.5685 297.959 73.4849 298.309C74.1382 298.469 74.6481 298.803 75.0146 299.281C75.3971 299.759 75.5723 300.349 75.5723 301.034C75.5723 302.054 75.1899 302.883 74.4251 303.504C73.6602 304.126 72.6404 304.428 71.3816 304.428C70.1068 304.428 69.103 304.126 68.3381 303.504C67.5733 302.883 67.1908 302.054 67.1908 301.034C67.1908 300.349 67.3661 299.759 67.7486 299.281C68.115 298.803 68.6249 298.469 69.2783 298.309ZM71.3657 294.692C70.8717 294.692 70.4733 294.836 70.1546 295.091C69.8519 295.362 69.6925 295.712 69.6925 296.142C69.6925 296.604 69.8519 296.971 70.1546 297.242C70.4733 297.513 70.8717 297.64 71.3816 297.64C71.9074 297.64 72.3217 297.513 72.6245 297.242C72.9272 296.971 73.0706 296.604 73.0706 296.142C73.0706 295.696 72.9272 295.33 72.6245 295.075C72.3217 294.82 71.9074 294.692 71.3657 294.692ZM71.3179 299.122C70.7761 299.122 70.314 299.297 69.9634 299.616C69.6129 299.951 69.4376 300.381 69.4376 300.891C69.4376 301.433 69.6288 301.879 69.9794 302.213C70.3299 302.548 70.792 302.707 71.3657 302.707C71.9552 302.707 72.4333 302.548 72.7838 302.213C73.1344 301.895 73.3097 301.449 73.3097 300.907C73.3097 300.381 73.1344 299.951 72.7679 299.616C72.4014 299.297 71.9234 299.122 71.3179 299.122ZM79.2797 301.751L79.2638 303.775C79.2638 304.699 79.0726 305.416 78.6583 305.926C78.244 306.436 77.6066 306.755 76.7461 306.882V305.767C77.4632 305.56 77.8456 305.05 77.8934 304.237H76.7621V301.751H79.2797ZM80.703 301.433H82.8541C83.0294 302.293 83.5393 302.707 84.3838 302.707C84.7662 302.707 85.1009 302.612 85.3718 302.389C85.6426 302.182 85.8498 301.879 85.9932 301.496C86.1207 301.114 86.2322 300.779 86.2959 300.461C86.3597 300.142 86.4075 299.775 86.4394 299.361C85.8338 300.222 85.0371 300.652 84.0492 300.652C83.0135 300.652 82.1689 300.317 81.4997 299.616C80.8304 298.931 80.5118 298.055 80.5118 296.971C80.5118 295.84 80.8942 294.9 81.659 294.135C82.4239 293.37 83.38 292.987 84.5272 292.987C85.2602 292.987 85.9135 293.147 86.4712 293.465C87.0289 293.784 87.4592 294.198 87.7778 294.724C88.0806 295.266 88.3037 295.84 88.463 296.445C88.6064 297.067 88.6861 297.72 88.6861 298.421C88.6861 299.154 88.6064 299.839 88.463 300.508C88.3037 301.178 88.0806 301.815 87.7619 302.421C87.4432 303.026 86.9971 303.52 86.4234 303.887C85.8338 304.253 85.1487 304.428 84.3679 304.428C83.3481 304.428 82.5195 304.157 81.8502 303.616C81.1969 303.074 80.8145 302.357 80.703 301.433ZM84.4794 294.852C83.9695 294.852 83.5552 295.059 83.2206 295.441C82.886 295.824 82.7266 296.318 82.7266 296.891C82.7266 297.497 82.886 297.975 83.2206 298.357C83.5393 298.74 83.9695 298.931 84.4954 298.931C85.0053 298.931 85.4196 298.74 85.7542 298.357C86.0888 297.975 86.2641 297.497 86.2641 296.907C86.2641 296.334 86.0888 295.84 85.7542 295.441C85.4036 295.059 84.9893 294.852 84.4794 294.852ZM91.4215 298.309C90.8797 298.134 90.4813 297.847 90.1945 297.449C89.9077 297.051 89.7643 296.573 89.7643 295.999C89.7643 295.139 90.1308 294.421 90.8319 293.848C91.5489 293.274 92.4413 292.987 93.5089 292.987C94.5924 292.987 95.5007 293.274 96.2018 293.848C96.9029 294.421 97.2535 295.139 97.2535 295.999C97.2535 297.178 96.7117 297.959 95.6282 298.309C96.2815 298.469 96.7914 298.803 97.1579 299.281C97.5403 299.759 97.7156 300.349 97.7156 301.034C97.7156 302.054 97.3331 302.883 96.5683 303.504C95.8034 304.126 94.7836 304.428 93.5248 304.428C92.2501 304.428 91.2462 304.126 90.4813 303.504C89.7165 302.883 89.3341 302.054 89.3341 301.034C89.3341 300.349 89.5093 299.759 89.8918 299.281C90.2583 298.803 90.7682 298.469 91.4215 298.309ZM93.5089 294.692C93.0149 294.692 92.6165 294.836 92.2979 295.091C91.9951 295.362 91.8358 295.712 91.8358 296.142C91.8358 296.604 91.9951 296.971 92.2979 297.242C92.6165 297.513 93.0149 297.64 93.5248 297.64C94.0506 297.64 94.4649 297.513 94.7677 297.242C95.0704 296.971 95.2139 296.604 95.2139 296.142C95.2139 295.696 95.0704 295.33 94.7677 295.075C94.4649 294.82 94.0506 294.692 93.5089 294.692ZM93.4611 299.122C92.9193 299.122 92.4572 299.297 92.1066 299.616C91.7561 299.951 91.5808 300.381 91.5808 300.891C91.5808 301.433 91.772 301.879 92.1226 302.213C92.4731 302.548 92.9352 302.707 93.5089 302.707C94.0984 302.707 94.5765 302.548 94.927 302.213C95.2776 301.895 95.4529 301.449 95.4529 300.907C95.4529 300.381 95.2776 299.951 94.9111 299.616C94.5446 299.297 94.0666 299.122 93.4611 299.122ZM106.155 293.179L106.14 295.043C104.913 296.397 104.02 297.784 103.463 299.218C102.905 300.652 102.57 302.325 102.459 304.237H100.116C100.116 302.899 100.499 301.321 101.264 299.473C102.028 297.624 102.889 296.206 103.861 295.218H98.5388V293.179H106.155Z" fill="#111827"/>
<rect x="58.0977" y="312.237" width="118.623" height="7.74589" rx="3.87294" fill="#F4F5FF"/>
</g>
<defs>
<filter id="filter0_d_412_598" x="0.557419" y="0.098397" width="701.999" height="401.901" filterUnits="userSpaceOnUse" color-interpolation-filters="sRGB">
<feFlood flood-opacity="0" result="BackgroundImageFix"/>
<feColorMatrix in="SourceAlpha" type="matrix" values="0 0 0 0 0 0 0 0 0 0 0 0 0 0 0 0 0 0 127 0" result="hardAlpha"/>
<feOffset dy="3.54098"/>
<feGaussianBlur stdDeviation="13.7213"/>
<feComposite in2="hardAlpha" operator="out"/>
<feColorMatrix type="matrix" values="0 0 0 0 0 0 0 0 0 0 0 0 0 0 0 0 0 0 0.18 0"/>
<feBlend mode="normal" in2="BackgroundImageFix" result="effect1_dropShadow_412_598"/>
<feBlend mode="normal" in="SourceGraphic" in2="effect1_dropShadow_412_598" result="shape"/>
</filter>
<filter id="filter1_d_412_598" x="465.311" y="249.737" width="14.164" height="14.164" filterUnits="userSpaceOnUse" color-interpolation-filters="sRGB">
<feFlood flood-opacity="0" result="BackgroundImageFix"/>
<feColorMatrix in="SourceAlpha" type="matrix" values="0 0 0 0 0 0 0 0 0 0 0 0 0 0 0 0 0 0 127 0" result="hardAlpha"/>
<feOffset dy="1.77049"/>
<feGaussianBlur stdDeviation="1.77049"/>
<feComposite in2="hardAlpha" operator="out"/>
<feColorMatrix type="matrix" values="0 0 0 0 0.101961 0 0 0 0 0.12549 0 0 0 0 0.172549 0 0 0 0.05 0"/>
<feBlend mode="normal" in2="BackgroundImageFix" result="effect1_dropShadow_412_598"/>
<feBlend mode="normal" in="SourceGraphic" in2="effect1_dropShadow_412_598" result="shape"/>
</filter>
<filter id="filter2_d_412_598" x="414.729" y="120.016" width="117.984" height="93.9016" filterUnits="userSpaceOnUse" color-interpolation-filters="sRGB">
<feFlood flood-opacity="0" result="BackgroundImageFix"/>
<feColorMatrix in="SourceAlpha" type="matrix" values="0 0 0 0 0 0 0 0 0 0 0 0 0 0 0 0 0 0 127 0" result="hardAlpha"/>
<feOffset dy="7.08196"/>
<feGaussianBlur stdDeviation="17.7049"/>
<feComposite in2="hardAlpha" operator="out"/>
<feColorMatrix type="matrix" values="0 0 0 0 0.101961 0 0 0 0 0.12549 0 0 0 0 0.172549 0 0 0 0.09 0"/>
<feBlend mode="normal" in2="BackgroundImageFix" result="effect1_dropShadow_412_598"/>
<feBlend mode="normal" in="SourceGraphic" in2="effect1_dropShadow_412_598" result="shape"/>
</filter>
<linearGradient id="paint0_linear_412_598" x1="441.851" y1="4.22915" x2="441.851" y2="320.95" gradientUnits="userSpaceOnUse">
<stop stop-color="#4E55FD" stop-opacity="0.12"/>
<stop offset="1" stop-color="#4E55FD" stop-opacity="0"/>
</linearGradient>
<clipPath id="clip0_412_598">
<rect x="47.4746" y="91.2783" width="141.639" height="77.0163" rx="7.08196" fill="white"/>
</clipPath>
</defs>
</svg>
