<svg width="73" height="59" viewBox="0 0 73 59" fill="none" xmlns="http://www.w3.org/2000/svg">
<g clip-path="url(#clip0_905_1554)">
<path fill-rule="evenodd" clip-rule="evenodd" d="M29.4251 10.0521C27.6441 10.0521 26.2003 11.4939 26.2003 13.2725C26.2003 14.0261 26.4596 14.7194 26.8939 15.268L23.7342 19.4087C23.3417 19.239 22.9087 19.1449 22.4538 19.1449C21.7822 19.1449 21.1585 19.3499 20.6422 19.7007L18.4111 17.6533C18.6012 17.2427 18.7072 16.7854 18.7072 16.3034C18.7072 14.5248 17.2635 13.083 15.4824 13.083C13.7014 13.083 12.2575 14.5248 12.2575 16.3034C12.2575 17.0127 12.4872 17.6684 12.8762 18.2004L9.45172 23.0728C9.1541 22.9822 8.83824 22.9335 8.51099 22.9335C6.72996 22.9335 5.28613 24.3754 5.28613 26.1539C5.28613 27.9325 6.72996 29.3743 8.51099 29.3743C10.292 29.3743 11.7359 27.9325 11.7359 26.1539C11.7359 25.3892 11.469 24.6868 11.0231 24.1344L14.3955 19.3363C14.7351 19.4576 15.101 19.5238 15.4824 19.5238C16.0904 19.5238 16.6591 19.3558 17.1444 19.0636L19.4534 21.1825C19.3085 21.5486 19.2289 21.9476 19.2289 22.3653C19.2289 24.1438 20.6727 25.5857 22.4538 25.5857C24.2348 25.5857 25.6786 24.1438 25.6786 22.3653C25.6786 21.7313 25.4952 21.1401 25.1784 20.6416L28.457 16.3452C28.7625 16.4411 29.0878 16.4929 29.4251 16.4929C31.2062 16.4929 32.65 15.051 32.65 13.2725C32.65 11.4939 31.2062 10.0521 29.4251 10.0521ZM29.4251 11.9464C28.6917 11.9464 28.0973 12.5401 28.0973 13.2725C28.0973 14.0048 28.6917 14.5985 29.4251 14.5985C30.1585 14.5985 30.753 14.0048 30.753 13.2725C30.753 12.5401 30.1585 11.9464 29.4251 11.9464ZM22.4538 21.0393C21.7204 21.0393 21.1259 21.6329 21.1259 22.3653C21.1259 23.0976 21.7204 23.6913 22.4538 23.6913C23.1871 23.6913 23.7816 23.0976 23.7816 22.3653C23.7816 21.6329 23.1871 21.0393 22.4538 21.0393ZM15.4824 14.9774C14.749 14.9774 14.1545 15.571 14.1545 16.3034C14.1545 17.0357 14.749 17.6294 15.4824 17.6294C16.2158 17.6294 16.8102 17.0357 16.8102 16.3034C16.8102 15.571 16.2158 14.9774 15.4824 14.9774ZM8.51099 24.8279C7.77763 24.8279 7.18311 25.4216 7.18311 26.1539C7.18311 26.8863 7.77763 27.4799 8.51099 27.4799C9.24434 27.4799 9.83888 26.8863 9.83888 26.1539C9.83888 25.4216 9.24434 24.8279 8.51099 24.8279Z" fill="#1E40F2"/>
<path d="M44.1933 22.4618C53.9543 22.4619 61.8671 30.3752 61.8671 40.1368C61.8671 49.8985 53.9543 57.8119 44.1933 57.8119C34.4323 57.8119 26.5195 49.8985 26.5195 40.1368C26.5195 30.3752 34.4323 22.4619 44.1933 22.4618ZM44.1933 22.5491C34.4806 22.5492 26.6068 30.4234 26.6068 40.1368C26.6068 49.8503 34.4806 57.7246 44.1933 57.7246C53.906 57.7246 61.7798 49.8503 61.7798 40.1368C61.7798 30.4234 53.906 22.5492 44.1933 22.5491ZM44.1934 27.5225C51.1596 27.5225 56.8068 33.1702 56.8068 40.1371C56.8068 40.4623 56.7945 40.7846 56.7703 41.1036C56.7501 41.3693 56.525 41.5693 56.2585 41.5693H43.2837C42.9945 41.5693 42.7601 41.3349 42.7601 41.0457V28.0708C42.7601 27.8044 42.96 27.5793 43.2257 27.559C43.5451 27.5348 43.8678 27.5225 44.1934 27.5225Z" fill="#1E40F2"/>
<path d="M44.1939 22.4618V23.6401C53.304 23.6402 60.6893 31.0259 60.6893 40.1368H61.8676H63.0458C63.0458 29.7246 54.6056 21.2836 44.1939 21.2836V22.4618ZM61.8676 40.1368H60.6893C60.6893 49.2478 53.304 56.6336 44.1939 56.6336V57.8119V58.9901C54.6056 58.9901 63.0458 50.5491 63.0458 40.1368H61.8676ZM44.1939 57.8119V56.6336C35.0837 56.6336 27.6983 49.2478 27.6983 40.1368H26.5201H25.3418C25.3418 50.5491 33.7821 58.9901 44.1939 58.9901V57.8119ZM26.5201 40.1368H27.6983C27.6983 31.0259 35.0837 23.6402 44.1939 23.6401V22.4618V21.2836C33.7821 21.2836 25.3418 29.7246 25.3418 40.1368H26.5201ZM44.1939 22.5491V21.3708C33.8303 21.3709 25.4291 29.7727 25.4291 40.1368H26.6073H27.7856C27.7856 31.0741 35.1319 23.7274 44.1939 23.7273V22.5491ZM26.6073 40.1368H25.4291C25.4291 50.5009 33.8303 58.9029 44.1939 58.9029V57.7246V56.5464C35.1319 56.5464 27.7856 49.1996 27.7856 40.1368H26.6073ZM44.1939 57.7246V58.9029C54.5574 58.9029 62.9586 50.5009 62.9586 40.1368H61.7803H60.6021C60.6021 49.1996 53.2558 56.5464 44.1939 56.5464V57.7246ZM61.7803 40.1368H62.9586C62.9586 29.7727 54.5574 21.3709 44.1939 21.3708V22.5491V23.7273C53.2558 23.7274 60.6021 31.0741 60.6021 40.1368H61.7803ZM44.194 27.5225V28.7007C50.5092 28.7007 55.629 33.8209 55.629 40.1371H56.8073H57.9855C57.9855 32.5197 51.811 26.3442 44.194 26.3442V27.5225ZM56.8073 40.1371H55.629C55.629 40.4325 55.6179 40.7251 55.5959 41.0146L56.7708 41.1036L57.9457 41.1927C57.9721 40.8441 57.9855 40.4921 57.9855 40.1371H56.8073ZM56.259 41.5693V40.3911H43.2843V41.5693V42.7476H56.259V41.5693ZM42.7606 41.0457H43.9388V28.0708H42.7606H41.5823V41.0457H42.7606ZM43.2262 27.559L43.3154 28.734C43.6053 28.712 43.8982 28.7007 44.194 28.7007V27.5225V26.3442C43.8385 26.3442 43.486 26.3577 43.137 26.3842L43.2262 27.559ZM42.7606 28.0708H43.9388C43.9388 28.3928 43.6914 28.7054 43.3154 28.734L43.2262 27.559L43.137 26.3842C42.2297 26.4531 41.5823 27.216 41.5823 28.0708H42.7606ZM43.2843 41.5693V40.3911C43.6458 40.3911 43.9388 40.6842 43.9388 41.0457H42.7606H41.5823C41.5823 41.9857 42.3443 42.7476 43.2843 42.7476V41.5693ZM56.7708 41.1036L55.5959 41.0146C55.6244 40.6385 55.937 40.3911 56.259 40.3911V41.5693V42.7476C57.1139 42.7476 57.8769 42.1001 57.9457 41.1927L56.7708 41.1036Z" fill="#1E40F2"/>
<path d="M32.1476 3.09036C33.6533 3.09036 35.0973 3.68849 36.162 4.75317C37.2267 5.81786 37.8248 7.26192 37.8248 8.76761V19.037C36.9572 19.3004 36.1123 19.6161 35.2938 19.9805V8.76761C35.2938 7.93322 34.9623 7.13298 34.3723 6.54296C33.7823 5.95294 32.982 5.62143 32.1476 5.62143H5.67726C4.84283 5.62143 4.04263 5.95294 3.4526 6.54296C2.86258 7.13298 2.53107 7.9332 2.53106 8.76761V35.2379C2.53106 36.0724 2.86257 36.8726 3.4526 37.4626C4.04262 38.0526 4.84284 38.3841 5.67726 38.3841H22.3248C22.284 38.9309 22.2631 39.4834 22.2631 40.0407C22.2631 40.3335 22.2689 40.6251 22.2803 40.9152H5.67726C4.17155 40.9152 2.72749 40.3171 1.6628 39.2524C0.598119 38.1877 0 36.7436 0 35.2379V8.76761C4.93757e-06 7.26192 0.598113 5.81786 1.6628 4.75317C2.72749 3.68848 4.17156 3.09036 5.67726 3.09036H32.1476Z" fill="#1E40F2"/>
<path d="M70.5126 8.82347C71.6229 8.82347 72.523 9.72348 72.523 10.8338V26.0235C72.523 27.1339 71.6229 28.034 70.5126 28.034H66.1567C65.0464 28.034 64.1464 27.1339 64.1464 26.0235V10.8338C64.1464 9.72348 65.0464 8.82347 66.1567 8.82347H70.5126ZM60.1255 0C61.2358 0 62.1359 0.900064 62.1359 2.01038V26.0235C62.1359 26.4778 61.9851 26.8969 61.7309 27.2336C59.661 24.4099 56.9271 22.1034 53.7592 20.5441V2.01038C53.7592 0.900073 54.6593 1.2907e-05 55.7696 0H60.1255ZM49.7384 14.0728C50.8487 14.0728 51.7488 14.9729 51.7488 16.0832V19.6778C49.3841 18.7979 46.8251 18.317 44.1539 18.317C43.8922 18.317 43.6315 18.3216 43.3721 18.3308V16.0832C43.3721 14.9729 44.2723 14.0728 45.3825 14.0728H49.7384Z" fill="#1E40F2"/>
</g>
<defs>
<clipPath id="clip0_905_1554">
<rect width="72.5281" height="59" fill="white"/>
</clipPath>
</defs>
</svg>
