<svg width="52" height="49" viewBox="0 0 52 49" fill="none" xmlns="http://www.w3.org/2000/svg">
<g clip-path="url(#clip0_905_1497)">
<path d="M11.2574 18.2795H3.60928C2.55331 18.2795 1.69727 19.2075 1.69727 20.3522V28.6431C1.69727 29.7878 2.55331 30.7158 3.60928 30.7158H11.2574C12.3134 30.7158 13.1694 29.7878 13.1694 28.6431V20.3522C13.1694 19.2075 12.3134 18.2795 11.2574 18.2795Z" stroke="#1E40F2" stroke-width="3.31811" stroke-linecap="round" stroke-linejoin="round"/>
<path d="M47.5862 1.69763H36.1142C35.0581 1.69763 34.2021 2.62562 34.2021 3.77036V16.2067C34.2021 17.3515 35.0581 18.2795 36.1142 18.2795H47.5862C48.6422 18.2795 49.4982 17.3515 49.4982 16.2067V3.77036C49.4982 2.62562 48.6422 1.69763 47.5862 1.69763Z" stroke="#1E40F2" stroke-width="3.31811" stroke-linecap="round" stroke-linejoin="round"/>
<path d="M47.5862 30.7159H36.1142C35.0581 30.7159 34.2021 31.6439 34.2021 32.7886V45.225C34.2021 46.3697 35.0581 47.2977 36.1142 47.2977H47.5862C48.6422 47.2977 49.4982 46.3697 49.4982 45.225V32.7886C49.4982 31.6439 48.6422 30.7159 47.5862 30.7159Z" stroke="#1E40F2" stroke-width="3.31811" stroke-linecap="round" stroke-linejoin="round"/>
<path d="M13.1699 24.4977H24.642" stroke="#1E40F2" stroke-width="3.31811" stroke-linecap="round" stroke-linejoin="round"/>
<path d="M34.2017 39.0068H28.4656C27.4514 39.0068 26.4788 38.5701 25.7617 37.7927C25.0445 37.0152 24.6416 35.9608 24.6416 34.8614V14.1341C24.6416 13.0346 25.0445 11.9802 25.7617 11.2028C26.4788 10.4253 27.4514 9.98859 28.4656 9.98859H34.2017" stroke="#1E40F2" stroke-width="3.31811" stroke-linecap="round" stroke-linejoin="round"/>
</g>
<defs>
<clipPath id="clip0_905_1497">
<rect width="51.1606" height="49" fill="white"/>
</clipPath>
</defs>
</svg>
