<svg width="55" height="52" viewBox="0 0 55 52" fill="none" xmlns="http://www.w3.org/2000/svg">
<path d="M44.2406 46.9761C41.9617 46.9761 40.1143 45.1288 40.1143 42.8499C40.1143 40.571 41.9617 38.7236 44.2406 38.7236C46.5194 38.7236 48.3668 40.571 48.3668 42.8499C48.3668 45.1288 46.5194 46.9761 44.2406 46.9761Z" stroke="#1E40F2" stroke-width="1.67756" stroke-linecap="round" stroke-linejoin="round"/>
<path d="M50.0943 50.1502C49.4602 49.1753 48.5926 48.3741 47.5704 47.8196C46.5481 47.2649 45.4035 46.9745 44.2405 46.9745C43.0775 46.9745 41.9329 47.2649 40.9107 47.8196C39.8884 48.3741 39.0208 49.1753 38.3867 50.1502" stroke="#1E40F2" stroke-width="1.67756" stroke-linecap="round" stroke-linejoin="round"/>
<path d="M37.2581 46.9761C36.0952 46.9754 34.9505 47.2654 33.9281 47.8198C32.9058 48.3741 32.0382 49.1752 31.4043 50.1501" stroke="#1E40F2" stroke-width="1.67756" stroke-linecap="round" stroke-linejoin="round"/>
<path d="M38.7897 39.0172C38.2253 38.7921 37.6181 38.6944 37.0115 38.7311C36.405 38.7679 35.814 38.9382 35.2808 39.2298C34.7477 39.5214 34.2855 39.9272 33.9274 40.4181C33.5693 40.9091 33.3241 41.4731 33.2091 42.0698C33.0943 42.6665 33.1126 43.2813 33.2629 43.8701C33.4131 44.4589 33.6916 45.0072 34.0783 45.476C34.465 45.9447 34.9506 46.3222 35.5001 46.5816C36.0497 46.8409 36.6498 46.9757 37.2574 46.9761" stroke="#1E40F2" stroke-width="1.67756" stroke-linecap="round" stroke-linejoin="round"/>
<path d="M7.64735 32.4445C7.96477 32.4014 8.27284 32.5693 8.40178 32.8626C11.87 40.7522 19.7541 46.2617 28.9251 46.2617C29.1429 46.2617 29.3601 46.2586 29.5764 46.2524C29.9389 46.2421 30.2516 46.5129 30.3104 46.8707C30.3787 47.2867 30.0845 47.6834 29.6632 47.6962C29.4181 47.7036 29.172 47.7074 28.9251 47.7074C19.1459 47.7074 10.7413 41.8226 7.05901 33.4011C6.87346 32.9767 7.18836 32.5068 7.64735 32.4445ZM51.441 19.2915C51.849 19.1127 52.3526 19.3202 52.4286 19.7591C52.6588 21.0894 52.7788 22.4576 52.7788 23.8537C52.7788 28.4735 51.4654 32.7864 49.1918 36.4397C48.969 36.7977 48.4757 36.8505 48.1503 36.5824C47.8703 36.3517 47.7961 35.9472 47.9872 35.6388C50.1084 32.215 51.3331 28.1774 51.3331 23.8537C51.3331 22.5558 51.2226 21.2836 51.0108 20.0461C50.9566 19.7293 51.1467 19.4205 51.441 19.2915ZM28.9251 0C33.1349 1.59725e-06 37.09 1.09062 40.5233 3.00465C40.799 3.15831 40.9149 3.4868 40.8248 3.78925C40.6935 4.22993 40.1789 4.467 39.7768 4.24401C36.5617 2.46102 32.862 1.44569 28.9251 1.44569C20.0463 1.4457 12.3737 6.60965 8.74663 14.0979C8.60698 14.3862 8.29274 14.5423 7.97717 14.4876C7.52076 14.4085 7.22365 13.9274 7.42472 13.5101C11.2775 5.51624 19.4571 5.61594e-06 28.9251 0Z" fill="#1E40F2"/>
<path d="M35.9436 22.2012C36.6114 22.2012 37.1528 22.7426 37.1528 23.4104C37.1528 24.0782 36.6114 24.6196 35.9436 24.6196C35.2757 24.6196 34.7344 24.0782 34.7344 23.4104C34.7344 22.7426 35.2757 22.2012 35.9436 22.2012Z" fill="#1E40F2" stroke="#1E40F2" stroke-width="0.0599129"/>
<path d="M30.1603 22.2012C30.8282 22.2012 31.3696 22.7426 31.3696 23.4104C31.3696 24.0782 30.8282 24.6196 30.1603 24.6196C29.4925 24.6196 28.9512 24.0782 28.9512 23.4104C28.9512 22.7426 29.4925 22.2012 30.1603 22.2012Z" fill="#1E40F2" stroke="#1E40F2" stroke-width="0.0599129"/>
<path d="M33.0526 32.0845C31.4261 32.0838 29.8448 31.5498 28.551 30.5643C27.2571 29.5787 26.3221 28.1962 25.8893 26.6285C25.4564 25.0607 25.5495 23.3942 26.1544 21.8845C26.7593 20.3748 27.8426 19.105 29.2382 18.2698C30.6338 17.4347 32.2647 17.0801 33.8811 17.2607C35.4975 17.4411 37.0101 18.1467 38.1871 19.2691C39.3641 20.3916 40.1406 21.869 40.3975 23.475C40.6545 25.081 40.3778 26.7269 39.6097 28.1606L40.4523 31.0271C40.4942 31.1695 40.4969 31.3205 40.4602 31.4642C40.4235 31.6079 40.3488 31.7391 40.2439 31.8441C40.139 31.949 40.0077 32.0237 39.864 32.0603C39.7203 32.0971 39.5693 32.0944 39.4269 32.0525L36.5635 31.2068C35.4837 31.7851 34.2774 32.0867 33.0526 32.0845Z" stroke="#1E40F2" stroke-width="0.958606" stroke-linecap="round" stroke-linejoin="round"/>
<path d="M26.037 27.1165C24.9533 27.0588 23.8956 26.763 22.9391 26.2501L20.0725 27.0928C19.9302 27.1346 19.7792 27.1373 19.6355 27.1006C19.4917 27.0639 19.3605 26.9892 19.2556 26.8843C19.1507 26.7794 19.076 26.6482 19.0393 26.5045C19.0027 26.3607 19.0053 26.2097 19.0471 26.0674L19.8867 23.2039C19.4084 22.3012 19.1213 21.3095 19.0433 20.2908C18.9653 19.2722 19.0981 18.2484 19.4334 17.2833C19.7686 16.3183 20.2992 15.4327 20.992 14.6818C21.6847 13.9309 22.5248 13.3309 23.4597 12.9191C24.3947 12.5073 25.4045 12.2926 26.4262 12.2885C27.4478 12.2843 28.4593 12.4907 29.3976 12.8948C30.3359 13.2989 31.1808 13.8921 31.8797 14.6373C32.5786 15.3825 33.1164 16.2637 33.4595 17.226" stroke="#1E40F2" stroke-width="0.958606" stroke-linecap="round" stroke-linejoin="round"/>
<path d="M48.307 11.9701C50.5858 11.9701 52.4332 10.1226 52.4332 7.84379C52.4332 5.56488 50.5858 3.71747 48.307 3.71747C46.0281 3.71747 44.1807 5.56488 44.1807 7.84379C44.1807 10.1226 46.0281 11.9701 48.307 11.9701Z" stroke="#1E40F2" stroke-width="1.67756" stroke-linecap="round" stroke-linejoin="round"/>
<path d="M42.4541 15.1442C43.0882 14.1693 43.9558 13.3681 44.978 12.8136C46.0003 12.259 47.1449 11.9685 48.3079 11.9685C49.4709 11.9685 50.6155 12.259 51.6378 12.8136C52.66 13.3681 53.5276 14.1693 54.1617 15.1442" stroke="#1E40F2" stroke-width="1.67756" stroke-linecap="round" stroke-linejoin="round"/>
<path d="M6.69272 26.4268C8.97163 26.4268 10.819 24.5794 10.819 22.3005C10.819 20.0217 8.97163 18.1743 6.69272 18.1743C4.41381 18.1743 2.56641 20.0217 2.56641 22.3005C2.56641 24.5794 4.41381 26.4268 6.69272 26.4268Z" stroke="#1E40F2" stroke-width="1.67756" stroke-linecap="round" stroke-linejoin="round"/>
<path d="M0.838867 29.601C1.47296 28.626 2.34052 27.8249 3.36279 27.2703C4.38506 26.7157 5.52965 26.4252 6.69265 26.4252C7.85568 26.4252 9.00026 26.7157 10.0225 27.2703C11.0448 27.8249 11.9124 28.626 12.5464 29.601" stroke="#1E40F2" stroke-width="1.67756" stroke-linecap="round" stroke-linejoin="round"/>
</svg>
