<svg width="109" height="41" viewBox="0 0 109 41" fill="none" xmlns="http://www.w3.org/2000/svg">
<path d="M40.9923 24.581L43.3803 30.851H38.7533L40.9923 24.581ZM40.0963 22.481L34.8723 36.211H36.8123L38.1553 32.481H43.9753L45.3183 36.211H47.2583L42.0343 22.481H40.0943H40.0963ZM68.2963 36.223H70.0963V22.491H68.2963V36.223ZM49.9463 28.153C50.5433 27.257 51.7463 26.511 52.9313 26.511C55.3193 26.511 56.5133 28.153 56.5133 30.541V36.361H54.7133V30.839C54.7133 28.899 53.6683 28.152 52.3253 28.152C50.8323 28.152 49.7883 29.645 49.7883 30.988V36.212H47.9883V26.673H49.7883L49.9383 28.166L49.9463 28.153ZM58.0063 33.387C58.0063 31.287 59.9463 30.103 62.1863 30.103C63.5293 30.103 64.4263 30.403 64.7233 30.7V30.4C64.7233 28.907 63.5293 28.16 62.3353 28.16C61.2903 28.16 60.3953 28.608 60.0953 29.503L58.4533 28.757C58.7533 27.861 59.9463 26.517 62.3333 26.517C64.5733 26.517 66.5133 27.86 66.5133 30.547V36.219H64.8713V34.876H64.7213C64.2733 35.622 63.2283 36.518 61.5873 36.518C59.6473 36.518 58.0053 35.324 58.0053 33.384M64.7213 32.19C64.7213 32.19 63.9753 31.593 62.4813 31.593C60.6813 31.593 59.9443 32.638 59.9443 33.393C59.9443 34.438 60.9893 34.886 61.8843 34.886C63.2273 34.886 64.7203 33.692 64.7203 32.199" fill="white"/>
<path fill-rule="evenodd" clip-rule="evenodd" d="M72.6343 40.403L74.7343 35.478L71.0043 26.821H72.8043L75.6403 33.388L78.4763 26.821H80.2763L74.4563 40.403H72.6343ZM98.9043 29.953C98.4563 28.759 97.4113 28.013 96.3673 28.013C94.8743 28.013 93.5313 29.356 93.5313 31.297C93.5313 33.238 94.8743 34.581 96.3673 34.581C97.4123 34.581 98.4673 33.835 98.9043 32.781L100.397 33.677C99.6513 35.319 98.1573 36.364 96.3673 36.364C93.8303 36.364 91.7403 34.124 91.7403 31.289C91.7403 28.304 93.8403 26.214 96.3673 26.214C98.1673 26.214 99.6513 27.259 100.397 28.901L98.9043 29.946V29.953Z" fill="white"/>
<path d="M105.321 36.521C107.709 36.521 108.903 35.178 108.903 33.536C108.903 29.954 103.679 31.296 103.679 29.208C103.679 28.462 104.276 28.014 105.321 28.014C106.366 28.014 107.421 28.462 107.858 29.208L108.903 28.163C108.306 27.417 106.663 26.363 105.173 26.363C102.933 26.363 101.74 27.706 101.74 29.348C101.74 32.781 107.113 31.588 107.113 33.378C107.113 34.274 106.516 34.871 105.313 34.871C104.11 34.871 103.513 34.125 102.925 33.378L101.599 34.433C102.495 35.329 103.839 36.533 105.329 36.533L105.321 36.521ZM88.3063 36.223H90.1063V26.671H88.3063V36.223Z" fill="white"/>
<path fill-rule="evenodd" clip-rule="evenodd" d="M89.0523 22.053C89.7983 22.053 90.2463 22.65 90.2463 23.247C90.2463 23.993 89.6493 24.441 89.0523 24.441C88.4553 24.441 87.8583 23.844 87.8583 23.247C87.8583 22.65 88.4553 22.053 89.0523 22.053ZM86.5153 34.74L86.8153 36.083H85.0153C83.3733 36.083 82.6273 34.889 82.6273 33.098V28.453H80.8273V26.653H82.6273V23.835H84.4273V26.671H86.5273V28.471H84.4273V33.396C84.4273 34.739 85.4723 34.739 86.5273 34.739L86.5153 34.74Z" fill="white"/>
<path d="M43.9473 7.311V9.551H49.1713C49.0213 10.745 48.5743 11.651 47.9773 12.238C47.2313 12.984 46.0373 13.88 43.9473 13.88C40.8133 13.88 38.2753 11.343 38.2753 8.06C38.2753 4.926 40.8123 2.24 43.9473 2.24C45.7473 2.24 46.9323 2.986 47.8273 3.733L49.3203 2.24C47.9773 1.046 46.3353 0 43.9473 0C39.6193 0 35.8873 3.582 35.8873 7.9C35.8873 12.218 39.6173 15.8 43.9473 15.8C46.3353 15.8 48.1273 15.054 49.4693 13.56C50.9623 12.067 51.4093 10.127 51.4093 8.485C51.4093 8.037 51.4093 7.44 51.2593 7.142H43.9463L43.9473 7.311ZM57.2293 5.511C54.3933 5.511 52.1543 7.611 52.1543 10.586C52.1543 13.561 54.3943 15.661 57.2293 15.661C57.8974 15.667 58.56 15.5398 59.1785 15.2869C59.7969 15.034 60.3587 14.6604 60.8312 14.188C61.3037 13.7155 61.6773 13.1536 61.9302 12.5352C62.1831 11.9168 62.3103 11.2541 62.3043 10.586C62.3043 7.601 60.0643 5.511 57.2293 5.511ZM57.2293 13.711C55.7363 13.711 54.3933 12.368 54.3933 10.577C54.3933 8.786 55.7363 7.453 57.2293 7.453C58.7223 7.453 60.0663 8.653 60.0663 10.583C60.0663 12.513 58.7233 13.717 57.2303 13.717L57.2293 13.711ZM81.6993 6.555C81.1023 5.958 80.2063 5.361 78.8633 5.361C76.3263 5.361 74.0873 7.601 74.0873 10.436C74.0873 13.271 76.3273 15.511 78.8633 15.511C80.0573 15.511 81.1033 14.914 81.5503 14.317H81.7003V15.063C81.7003 17.003 80.6553 18.048 79.0133 18.048C77.6703 18.048 76.7733 17.003 76.4763 16.248L74.5363 16.994C75.1333 18.337 76.6363 19.979 79.0143 19.979C81.7013 19.979 83.9393 18.486 83.9393 14.606V5.353H81.8393V6.547L81.6993 6.555ZM79.1623 13.719C77.6693 13.719 76.4753 12.376 76.4753 10.585C76.4753 8.794 77.6693 7.451 79.1623 7.451C80.6553 7.451 81.8493 8.794 81.8493 10.585C81.8493 12.376 80.6553 13.719 79.1623 13.719ZM68.2653 5.519C65.4293 5.519 63.1903 7.619 63.1903 10.594C63.1903 13.569 65.4303 15.669 68.2653 15.669C68.9334 15.675 69.596 15.5478 70.2145 15.2949C70.8329 15.042 71.3947 14.6684 71.8672 14.196C72.3397 13.7235 72.7133 13.1616 72.9662 12.5432C73.2191 11.9248 73.3463 11.2621 73.3403 10.594C73.4903 7.609 71.1003 5.519 68.2653 5.519ZM68.2653 13.719C66.7723 13.719 65.4293 12.376 65.4293 10.585C65.4293 8.794 66.7723 7.451 68.2653 7.451C69.7583 7.451 71.1013 8.645 71.1013 10.585C71.1013 12.525 69.7583 13.719 68.2653 13.719ZM85.5993 0.147001H87.8393V15.669H85.5993V0.147001ZM93.9573 13.729C92.7633 13.729 92.0173 13.132 91.4203 12.236L98.2862 9.4L97.9863 8.803C97.5383 7.609 96.1863 5.519 93.6583 5.519C90.9713 5.519 88.8823 7.619 88.8823 10.594C88.8763 11.2621 89.0034 11.9248 89.2563 12.5432C89.5092 13.1616 89.8828 13.7235 90.3553 14.196C90.8278 14.6684 91.3896 15.042 92.0081 15.2949C92.6265 15.5478 93.2891 15.675 93.9573 15.669C96.3453 15.669 97.6873 14.176 98.2853 13.429L96.4853 12.235C95.8883 13.131 95.1423 13.728 93.9483 13.728L93.9573 13.729ZM93.8073 7.459C94.7033 7.459 95.4493 7.907 95.7473 8.653L91.1203 10.593C91.1203 8.353 92.6133 7.459 93.8073 7.459Z" fill="white"/>
<path d="M21.8479 5.02518V31.2425C21.8479 34.1761 23.8738 35.8107 26.0188 35.8107C28.005 35.8107 30.1898 34.4204 30.1898 31.2425V5.2238C30.1898 2.53454 28.2036 0.854248 26.0188 0.854248C23.834 0.854248 21.8479 2.70734 21.8479 5.02518Z" fill="white"/>
<path d="M10.9239 18.3325V31.2425C10.9239 34.1761 12.9498 35.8107 15.0949 35.8107C17.0811 35.8107 19.2659 34.4204 19.2659 31.2425V18.5311C19.2659 15.8418 17.2797 14.1615 15.0949 14.1615C12.9101 14.1615 10.9239 16.0146 10.9239 18.3325Z" fill="white"/>
<path d="M4.17096 35.8107C6.47451 35.8107 8.34191 33.9433 8.34191 31.6397C8.34191 29.3362 6.47451 27.4688 4.17096 27.4688C1.8674 27.4688 0 29.3362 0 31.6397C0 33.9433 1.8674 35.8107 4.17096 35.8107Z" fill="white"/>
</svg>
