<svg width="107" height="40" viewBox="0 0 107 40" fill="none" xmlns="http://www.w3.org/2000/svg">
<path d="M57.5709 38.2575L62.8586 24.1971H64.9015L70.1892 38.2575H68.1863L66.8243 34.452H60.9358L59.5738 38.2575H57.5709ZM61.5366 32.7695H66.2235L63.9401 26.4403H63.86L61.5366 32.7695ZM72.0319 37.0959C71.1506 36.0944 70.71 34.8926 70.71 33.4505C70.71 32.0485 71.1506 30.8468 72.0319 29.8052C72.9533 28.8038 73.9948 28.3231 75.2766 28.3231C75.9977 28.3231 76.6386 28.4833 77.1994 28.7637C77.8003 29.0842 78.2409 29.4447 78.5614 29.9655H78.6415L78.5614 28.6435V24.1971H80.364V38.2575H78.6415V36.9356H78.5614C78.2409 37.4163 77.8003 37.8169 77.1994 38.1374C76.5986 38.4578 75.9576 38.578 75.2766 38.578C73.9948 38.578 72.9132 38.0973 72.0319 37.0959ZM77.7202 35.9742C78.3211 35.3333 78.6015 34.4921 78.6015 33.4505C78.6015 32.4491 78.3211 31.6079 77.7202 30.9669C77.1594 30.326 76.4383 30.0055 75.557 30.0055C74.6758 30.0055 73.9547 30.326 73.3939 30.9669C72.793 31.6079 72.5126 32.4491 72.5126 33.4505C72.5126 34.452 72.793 35.2932 73.3939 35.9342C73.9948 36.5751 74.7158 36.8956 75.557 36.8956C76.4383 36.9356 77.1594 36.6151 77.7202 35.9742ZM88.6962 37.6967C87.9751 38.2575 87.0538 38.578 85.9321 38.578C84.9707 38.578 84.1295 38.3377 83.3684 37.8169C82.6474 37.2961 82.1266 36.6552 81.8061 35.814L83.4085 35.133C83.6488 35.6938 83.9693 36.1745 84.45 36.495C84.8906 36.8154 85.4114 36.9757 85.9321 36.9757C86.493 36.9757 86.9737 36.8555 87.3742 36.6151C87.7748 36.3748 87.9351 36.0543 87.9351 35.7339C87.9351 35.133 87.4544 34.6523 86.533 34.3719L84.8906 33.9713C83.0079 33.4906 82.0865 32.6093 82.0865 31.2473C82.0865 30.3661 82.4471 29.6851 83.1681 29.1243C83.8892 28.6035 84.8105 28.3231 85.8921 28.3231C86.7057 28.3176 87.5065 28.5247 88.2155 28.924C88.8965 29.3245 89.3772 29.8854 89.6576 30.5663L88.0552 31.2473C87.8549 30.8468 87.5745 30.5263 87.174 30.2859C86.7734 30.0456 86.2927 29.9254 85.7719 29.9254C85.2912 29.9254 84.8906 30.0456 84.49 30.2859C84.1295 30.5263 83.9292 30.8067 83.9292 31.1672C83.9292 31.728 84.45 32.1286 85.4915 32.3289L86.9336 32.6894C88.8564 33.1701 89.7777 34.1315 89.7777 35.5736C89.8178 36.4149 89.4172 37.1359 88.6962 37.6967Z" fill="white"/>
<path d="M50.7962 3.578C46.2696 3.578 42.5042 7.22332 42.5042 11.7098C42.5042 16.1964 46.2696 19.8016 50.7962 19.8016C53.2398 19.8016 55.0424 19.0005 56.4845 17.5183C57.9667 16.0361 58.4073 13.9932 58.4073 12.3508C58.4073 11.83 58.3672 11.3493 58.2871 10.9487H50.7962V13.1519H56.124C55.9637 14.3937 55.5632 15.3151 54.9222 15.956C54.1611 16.7171 52.9193 17.5984 50.7962 17.5984C47.5114 17.5984 44.9477 14.9546 44.9477 11.7098C44.9477 8.46512 47.5114 5.82127 50.7962 5.82127C52.5588 5.82127 53.8807 6.50226 54.802 7.4236L56.3643 5.86133C55.0424 4.57947 53.2798 3.578 50.7962 3.578ZM64.376 9.38646C61.5318 9.38646 59.1684 11.5897 59.1684 14.6742C59.1684 17.7186 61.4918 19.9618 64.376 19.9618C67.2602 19.9618 69.5836 17.7186 69.5836 14.6742C69.5836 11.6297 67.2201 9.38646 64.376 9.38646ZM64.376 17.8788C62.8137 17.8788 61.4517 16.5569 61.4517 14.6742C61.4517 12.7914 62.8137 11.4695 64.376 11.4695C65.9383 11.4695 67.3002 12.7514 67.3002 14.6742C67.3002 16.5569 65.9383 17.8788 64.376 17.8788ZM75.6724 9.38646C72.7882 9.38646 70.4648 11.5897 70.4648 14.6742C70.4648 17.7186 72.7882 19.9618 75.6724 19.9618C78.5166 19.9618 80.88 17.7186 80.88 14.6742C80.88 11.6297 78.5566 9.38646 75.6724 9.38646ZM75.6724 17.8788C74.1102 17.8788 72.7482 16.5569 72.7482 14.6742C72.7482 12.7914 74.1102 11.4695 75.6724 11.4695C77.2347 11.4695 78.5967 12.7514 78.5967 14.6742C78.5967 16.5569 77.2748 17.8788 75.6724 17.8788ZM86.9288 9.38646C84.325 9.38646 81.9616 11.6698 81.9616 14.6341C81.9616 17.5584 84.325 19.8417 86.9288 19.8417C88.1706 19.8417 89.132 19.2809 89.6528 18.6399H89.7329V19.401C89.7329 21.4039 88.6914 22.4855 86.9689 22.4855C85.5668 22.4855 84.7256 21.4841 84.3651 20.6428L82.3622 21.4841C82.923 22.8861 84.4452 24.5686 86.9689 24.5686C89.6528 24.5686 91.896 22.9662 91.896 19.1206V9.74698H89.7329V10.5882H89.6528C89.132 9.94727 88.1706 9.38646 86.9288 9.38646ZM87.1291 17.7987C85.5668 17.7987 84.2449 16.4768 84.2449 14.6341C84.2449 12.7914 85.5668 11.4294 87.1291 11.4294C88.6914 11.4294 89.8931 12.7914 89.8931 14.6341C89.8931 16.4768 88.6914 17.7987 87.1291 17.7987ZM93.5785 4.21894H95.8618V19.6814H93.5785V4.21894ZM101.991 9.38646C99.2668 9.38646 96.9834 11.5096 96.9834 14.6742C96.9834 17.6385 99.2267 19.9618 102.231 19.9618C104.675 19.9618 106.077 18.4797 106.637 17.6385L104.835 16.4367C104.234 17.318 103.393 17.8788 102.231 17.8788C101.029 17.8788 100.188 17.3581 99.6673 16.2765L106.758 13.3522L106.517 12.7514C106.077 11.5897 104.715 9.38646 101.991 9.38646ZM99.2668 14.5139C99.1866 12.471 100.869 11.4294 102.031 11.4294C102.952 11.4294 103.753 11.8701 103.994 12.5511L99.2668 14.5139Z" fill="white"/>
<path d="M14.8976 5.0366C15.3208 3.92586 15.9026 2.90328 16.7665 2.07463C20.2221 -1.29285 25.9345 -0.446575 28.2794 3.78482C30.0425 6.99362 31.9114 10.1319 33.7273 13.3054L42.8248 29.1379C45.346 33.5632 42.6133 39.1522 37.6061 39.9103C34.5383 40.3687 31.6645 38.9583 30.0778 36.2079L22.0734 22.3148C22.0205 22.209 21.95 22.1208 21.8794 22.0327C21.5973 21.8035 21.4739 21.4685 21.2976 21.1688L15.4089 10.9606C14.7213 9.76166 14.404 8.45698 14.4392 7.08178C14.4921 6.37654 14.5803 5.67131 14.8976 5.0366Z" fill="white"/>
<path d="M14.8976 5.0366C14.739 5.67131 14.5979 6.30602 14.5627 6.97599C14.5098 8.45698 14.88 9.83218 15.6205 11.1192L21.421 21.1512C21.5973 21.4509 21.7384 21.7506 21.9147 22.0327L18.7235 27.5159L14.2629 35.2029C14.1924 35.2029 14.1748 35.1676 14.1571 35.1147C14.1395 34.9737 14.1924 34.8503 14.2277 34.7092C14.9505 32.0646 14.3511 29.7197 12.5351 27.7098C11.4244 26.4933 10.0139 25.8057 8.39187 25.5765C6.27617 25.2768 4.40731 25.8233 2.73238 27.1456C2.43266 27.3748 2.23872 27.7098 1.88611 27.8861C1.81558 27.8861 1.78032 27.8509 1.76269 27.798L4.28389 23.4079L14.7742 5.23054C14.8095 5.16002 14.8624 5.10713 14.8976 5.0366Z" fill="white"/>
<path d="M1.83321 27.8509L2.83817 26.9517C7.12245 23.5666 13.5577 26.0173 14.4921 31.377C14.7213 32.6641 14.5979 33.8982 14.21 35.1324C14.1924 35.2382 14.1748 35.3263 14.1395 35.4321C13.9808 35.7142 13.8398 36.0139 13.6635 36.296C12.0943 38.8877 9.7847 40.1748 6.75221 39.9809C3.27894 39.734 0.546164 37.1247 0.0701329 33.669C-0.159068 31.9941 0.175918 30.425 1.03983 28.9792C1.21613 28.6619 1.4277 28.3798 1.62164 28.0624C1.7098 27.9919 1.67454 27.8509 1.83321 27.8509Z" fill="white"/>
<path d="M1.83321 27.8509C1.76269 27.9214 1.76269 28.0448 1.63927 28.0624C1.62164 27.939 1.69217 27.8685 1.76269 27.7803L1.83321 27.8509Z" fill="white"/>
<path d="M14.1395 35.4321C14.069 35.3087 14.1395 35.2205 14.21 35.1324L14.2806 35.2029L14.1395 35.4321Z" fill="white"/>
</svg>
