<svg width="888" height="114" viewBox="0 0 888 114" fill="none" xmlns="http://www.w3.org/2000/svg">
<path fill-rule="evenodd" clip-rule="evenodd" d="M161.678 2.48031C160.868 0.950315 159.279 -0.0196965 157.548 0.000303472H41.3485C38.9285 -0.0196965 36.8885 1.8203 36.6685 4.2203C36.6285 4.6403 36.6485 5.0503 36.7085 5.4703C36.8285 6.1203 37.0985 6.74029 37.4585 7.30029L47.0785 21.5803L110.438 21.6203C116.948 21.6203 120.838 28.9003 117.208 34.3203L86.5385 80.0903L95.7085 93.7203C95.8085 93.8903 95.9285 94.0503 96.0685 94.2103L96.1485 94.2903C96.2685 94.4103 96.3685 94.5303 96.4885 94.6103L96.6085 94.7303L96.9285 94.9703L97.0685 95.0503C97.1885 95.1303 97.3085 95.1903 97.4285 95.2503L97.5685 95.3303C97.6885 95.3903 97.8085 95.4503 97.9385 95.4903L98.1185 95.5503C98.2385 95.5703 98.3585 95.6103 98.4785 95.6503L98.6585 95.6703C98.7785 95.7103 98.8985 95.7303 99.0285 95.7503L99.2285 95.7703H99.8485L100.128 95.7303C100.228 95.7303 100.318 95.7103 100.408 95.6903C100.488 95.6703 100.588 95.6703 100.668 95.6303C100.768 95.6103 100.868 95.5903 100.968 95.5503C101.048 95.5303 101.138 95.5103 101.208 95.4703C101.308 95.4503 101.408 95.3903 101.508 95.3503L101.708 95.2503C101.828 95.1903 101.948 95.1303 102.068 95.0503C102.108 95.0103 102.148 94.9903 102.208 94.9703C102.328 94.8703 102.448 94.7703 102.568 94.6703L102.648 94.6103C102.948 94.3503 103.208 94.0503 103.428 93.7103L161.398 7.29031C161.888 6.57031 162.168 5.72029 162.208 4.83029C162.208 4.02029 162.008 3.21029 161.618 2.49029H161.638L161.678 2.48031Z" fill="white"/>
<path fill-rule="evenodd" clip-rule="evenodd" d="M101.738 30.2803H3.94848C0.97848 30.2803 -0.851523 33.3703 0.398477 35.9303C0.498477 36.2103 0.638479 36.5003 0.818479 36.7603L49.2885 108.6C49.4285 108.8 49.5885 109 49.7785 109.19C51.3885 111.35 54.6985 111.31 56.2085 109.02L104.978 36.4103C105.788 35.2003 105.868 33.6503 105.178 32.3603C104.488 31.0703 103.158 30.2803 101.688 30.2803" fill="white"/>
<path fill-rule="evenodd" clip-rule="evenodd" d="M328.999 28.9102C303.428 28.9102 284.879 46.1902 284.879 70.9102C284.879 95.6302 303.428 113.07 328.999 113.07C354.569 113.07 373.259 95.8102 373.259 70.9102C373.259 46.0102 354.549 28.9102 328.999 28.9102ZM350.149 70.9102C350.149 83.9202 341.678 92.6302 328.999 92.6302C316.319 92.6302 307.849 83.9202 307.849 70.9102V70.5103C307.849 57.5303 316.289 48.7903 328.999 48.7903C341.708 48.7903 350.169 57.6603 350.169 70.5103L350.149 70.7102V70.9102ZM817.698 30.6703H789.409L758.499 64.1402V0.000244141H748.779C741.719 0.000244141 736.018 5.56024 736.018 12.4602V110.92H758.499V91.5802L768.099 80.0103L786.789 110.92H812.859L781.948 65.7502L817.698 30.6703ZM448.289 93.8603C444.289 93.8603 442.139 91.1803 442.139 86.8203V0.560242L419.659 5.86023V86.6502C419.659 102.2 427.279 113.15 443.669 113.15C449.619 113.15 455.118 111.1 459.779 108.13L452.079 93.0503C450.789 93.5503 449.499 93.8603 448.289 93.8603ZM409.129 93.8402C405.129 93.8402 402.979 91.1802 402.979 86.8302V9.54025L380.499 14.9902V86.6502C380.499 102.2 388.119 113.15 404.509 113.15C410.458 113.15 415.959 111.1 420.619 108.15L412.919 93.0503C411.629 93.5703 410.339 93.8603 409.129 93.8603V93.8402Z" fill="white"/>
<path fill-rule="evenodd" clip-rule="evenodd" d="M285.628 35.1902C285.628 14.4202 270.668 0.000244141 246.108 0.000244141H207.958C200.898 0.000244141 195.168 5.56024 195.168 12.4602V110.9H218.828V70.4102H234.048L260.278 110.9H289.048L259.428 68.9203C276.029 64.4803 285.618 51.8003 285.618 35.1703V35.1902H285.628ZM245.198 48.8302H218.828V21.5703H245.198C255.378 21.5703 260.728 26.3102 260.728 35.2802C260.728 44.2502 255.388 48.8302 245.198 48.8302Z" fill="white"/>
<path fill-rule="evenodd" clip-rule="evenodd" d="M630.558 28.9902C605.008 28.9902 586.438 46.2502 586.438 70.9902C586.438 95.7302 605.008 113.15 630.558 113.15C656.108 113.15 674.818 95.8702 674.818 70.9902C674.818 46.1102 656.108 28.9902 630.558 28.9902ZM630.558 92.6902C617.858 92.6902 609.388 83.9802 609.388 70.9902C609.388 58.0002 617.208 49.9603 629.108 49.3203C629.598 49.3003 630.078 49.2603 630.558 49.2603C643.238 49.2603 651.708 58.1503 651.708 70.9803C651.708 82.2703 645.338 90.3202 635.358 92.2502C633.788 92.5502 632.178 92.7102 630.558 92.6902Z" fill="white"/>
<path fill-rule="evenodd" clip-rule="evenodd" d="M727.919 31.2903V31.2702L727.529 31.1102L727.369 31.0302C725.659 30.2702 723.859 29.7002 722.029 29.3602H722.009C719.749 28.9402 717.448 28.9402 715.219 29.3802C704.708 31.4602 699.189 39.1402 699.189 39.1402L699.569 33.3302V31.0502H680.958V110.91H703.458V65.9503C703.458 62.0903 704.268 58.5102 705.698 55.6602C706.808 53.5002 708.099 51.9702 709.469 50.9102C710.419 50.1802 711.508 49.6202 712.648 49.1902C716.178 47.8802 720.249 47.9002 722.809 48.9302L731.018 33.3002C731.018 33.3002 730.129 32.3603 727.919 31.2903ZM851.559 60.7903C841.958 59.0303 839.379 57.9302 839.379 54.2802C839.379 49.5402 844.219 46.8402 853.638 46.8402C863.058 46.8402 872.958 49.6802 879.289 54.1202L879.669 53.2502L879.409 54.0602L887.129 38.8902C887.129 38.8902 886.349 38.2902 885.049 37.4602C876.698 32.1002 865.549 28.9102 853.799 28.9102C836.929 28.9102 816.319 34.9402 816.319 55.5502C816.319 72.2002 829.299 76.1602 849.439 79.6502C859.509 81.4102 865.509 82.6702 865.509 87.2502C865.509 93.9202 857.869 95.1703 851.379 95.1703C842.199 95.1703 831.069 92.9102 823.509 88.7002C823.209 88.5202 822.928 88.3503 822.638 88.1703L814.759 103.7L816.879 104.87L817.589 105.27C826.719 110.21 839.789 113.09 850.249 113.09C872.169 113.09 887.749 103.25 887.749 85.6703C887.749 68.0903 871.679 64.2503 851.559 60.7903ZM574.849 0.000244141L552.648 79.5403L537.388 31.0302H520.539C515.208 31.0302 510.498 34.4403 508.948 39.4203L496.319 79.7102L473.938 0.000244141H449.278L483.778 110.9H505.328L524.489 55.6703L541.969 110.9H565.198L599.679 0.000244141H574.849Z" fill="white"/>
</svg>
