<svg width="199" height="75" viewBox="0 0 199 75" fill="none" xmlns="http://www.w3.org/2000/svg">
<path d="M111.492 17.3301C111.492 18.4132 110.928 18.5901 109.529 18.5901C108.041 18.5901 107.77 18.3469 107.612 17.2417C107.319 14.4344 105.379 12.0471 102.132 11.7818C101.094 11.6934 100.846 11.3176 100.846 10.0576C100.846 8.88609 101.026 8.33347 101.951 8.33347C107.59 8.35558 111.492 12.7986 111.492 17.3301ZM119.701 17.3301C119.701 8.90819 113.882 0 100.44 0H73.7356C73.1943 0 72.856 0.265257 72.856 0.75156C72.856 1.01682 73.059 1.25997 73.2394 1.3926C74.2093 2.14416 75.6527 2.98414 77.5473 3.91253C79.3968 4.81883 80.8402 5.41565 82.2837 5.99037C82.8927 6.23353 83.1182 6.49878 83.1182 6.83035C83.1182 7.29455 82.7799 7.58191 82.1258 7.58191H60.9247C60.2932 7.58191 60 7.9798 60 8.37768C60 8.70925 60.1128 8.99661 60.406 9.28398C62.1201 11.0524 64.8717 13.1744 68.8639 15.628C72.3598 17.7722 76.6902 20.0932 80.141 21.7068C80.7275 21.9721 80.9079 22.2815 80.9079 22.6131C80.8853 22.9889 80.5921 23.2984 79.9155 23.2984H70.1946C69.6533 23.2984 69.3375 23.5857 69.3375 24.0278C69.3375 24.271 69.5405 24.5804 69.8111 24.8236C72.0215 26.7909 75.5625 28.935 80.2764 30.9024C86.569 33.5328 92.9519 35.1023 100.124 35.1023C113.724 35.1023 119.701 25.133 119.701 17.3301ZM101.951 29.2887C95.275 29.2887 89.7041 23.9615 89.7041 17.3301C89.7041 10.7871 95.275 5.54828 101.951 5.54828C108.808 5.54828 114.153 10.7871 114.153 17.3301C114.13 23.9615 108.785 29.2887 101.951 29.2887Z" fill="white"/>
<path d="M115.23 59.3715C115.23 55.0611 112.524 51.9223 107.336 51.9223H90.5783V74.2701H96.0816V66.644H102.6L108.983 74.2701H115.185V73.7838L108.983 66.5114C112.885 65.7377 115.23 62.9525 115.23 59.3715ZM106.727 62.1346H96.1041V56.5642H106.727C108.689 56.5642 109.953 57.5811 109.953 59.3494C109.953 61.162 108.735 62.1346 106.727 62.1346Z" fill="white"/>
<path d="M198.433 51.9223H193.268V60.4105H179.397V51.9223H173.826V74.2922H179.397V65.4724H193.268V74.2922H198.433V51.9223Z" fill="white"/>
<path d="M75.8503 51.9223L69.7155 70.7334H69.3772L63.2199 51.9223H53.4087V74.2922H58.6639V55.9232H58.9796L65.1144 74.2922H73.5723L79.7297 55.9232H80.0454V74.2922H85.4585V51.9223H75.8503Z" fill="white"/>
<path d="M15.9008 61.0736C13.9612 60.8746 10.3299 60.5431 8.39023 60.3441C6.47311 60.1452 5.36794 59.5926 5.36794 58.3547C5.36794 57.1611 6.54077 56.1663 11.2772 56.1663C15.4723 56.1663 19.3291 57.0505 22.6897 58.6421V53.6464C19.3291 52.077 15.6076 51.3033 10.984 51.3033C4.48832 51.3033 0 53.9559 0 58.4652C0 62.2673 2.63886 64.3451 7.91659 64.9198C9.83371 65.1188 13.0815 65.4061 15.3595 65.583C17.8405 65.7819 18.5623 66.5335 18.5623 67.6387C18.5623 69.1639 16.8256 70.0923 12.4275 70.0923C7.96169 70.0923 3.42827 68.6555 0.202995 66.644V71.7944C2.79675 73.4964 7.26251 74.9332 12.247 74.9332C19.3291 74.9332 23.8851 72.2586 23.8851 67.4619C23.9302 63.8367 21.4943 61.6483 15.9008 61.0736Z" fill="white"/>
<path d="M27.5389 51.9223V74.2922H48.8076V69.7165H32.794V65.1851H48.537V60.6536H32.794V56.4979H48.8076V51.9223H27.5389Z" fill="white"/>
<path d="M162.436 61.0736C160.497 60.8747 156.866 60.5431 154.926 60.3442C153.009 60.1452 151.904 59.5926 151.904 58.3547C151.904 57.1611 153.076 56.1664 157.813 56.1664C162.008 56.1664 165.865 57.0505 169.225 58.6421V53.6464C165.865 52.077 162.143 51.3033 157.52 51.3033C151.024 51.3033 146.536 53.9559 146.536 58.4653C146.536 62.2673 149.175 64.3451 154.452 64.9198C156.369 65.1188 159.617 65.4061 161.895 65.583C164.376 65.7819 165.098 66.5335 165.098 67.6387C165.098 69.1639 163.361 70.0923 158.963 70.0923C154.497 70.0923 149.964 68.6555 146.739 66.644V71.7944C149.332 73.4964 153.798 74.9333 158.783 74.9333C165.865 74.9333 170.421 72.2586 170.421 67.4619C170.466 63.8367 168.03 61.6483 162.436 61.0736Z" fill="white"/>
<path d="M137.288 51.9223V63.3725C137.288 67.705 134.604 70.0923 130.567 70.0923C126.507 70.0923 123.846 67.7492 123.846 63.3062V51.9223H118.365V62.7978C118.365 70.9102 123.53 74.9333 130.657 74.9333C137.491 74.9333 142.792 71.087 142.792 63.063V51.9223H137.288Z" fill="white"/>
</svg>
